<?xml version="1.0" encoding="utf-8"?>
<!-- Generator: Adobe Illustrator 19.1.0, SVG Export Plug-In . SVG Version: 6.00 Build 0)  -->
<svg version="1.1" id="Ebene_1" xmlns="http://www.w3.org/2000/svg" xmlns:xlink="http://www.w3.org/1999/xlink" x="0px" y="0px"
	 viewBox="-172 353.2 249.5 134.7" style="enable-background:new -172 353.2 249.5 134.7;" xml:space="preserve">
<style type="text/css">
	.st0{fill:#FAC40D;}
	.st1{fill:#FAC30D;}
	.st2{fill:#FAC20D;}
	.st3{fill:#FAC10E;}
	.st4{fill:#FAC00E;}
	.st5{fill:#FABF0E;}
	.st6{fill:#F9BE0E;}
	.st7{fill:#F9BD0E;}
	.st8{fill:#F9BC0F;}
	.st9{fill:#F9BB0F;}
	.st10{fill:#F9BA0F;}
	.st11{fill:#F9B90F;}
	.st12{fill:#F9B810;}
	.st13{fill:#F9B710;}
	.st14{fill:#F9B610;}
	.st15{fill:#F9B510;}
	.st16{fill:#F9B410;}
	.st17{fill:#F9B311;}
	.st18{fill:#F8B211;}
	.st19{fill:#F8B111;}
	.st20{fill:#F8B011;}
	.st21{fill:#F8AF12;}
	.st22{fill:#F8AE12;}
	.st23{fill:#F8AD12;}
	.st24{fill:#F8AC12;}
	.st25{fill:#F8AB12;}
	.st26{fill:#F8AA13;}
	.st27{fill:#F8A913;}
	.st28{fill:#F8A813;}
	.st29{fill:#F8A713;}
	.st30{fill:#F7A614;}
	.st31{fill:#F7A514;}
	.st32{fill:#F7A414;}
	.st33{fill:#F7A314;}
	.st34{fill:#F7A214;}
	.st35{fill:#F7A115;}
	.st36{fill:#F7A015;}
	.st37{fill:#F79F15;}
	.st38{fill:#F79E15;}
	.st39{fill:#F79D15;}
	.st40{fill:#F79C16;}
	.st41{fill:#F69B16;}
	.st42{fill:#F69A16;}
	.st43{fill:#F69916;}
	.st44{fill:#F69817;}
	.st45{fill:#F69717;}
	.st46{fill:#F69617;}
	.st47{fill:#F69417;}
	.st48{fill:#F69317;}
	.st49{fill:#F69218;}
	.st50{fill:#F69118;}
	.st51{fill:#F69018;}
	.st52{fill:#F68F18;}
	.st53{fill:#F58E19;}
	.st54{fill:#F58D19;}
	.st55{fill:#F58C19;}
	.st56{fill:#F58B19;}
	.st57{fill:#F58A19;}
	.st58{fill:#F5891A;}
	.st59{fill:#F5881A;}
	.st60{fill:#F5871A;}
	.st61{fill:#F5861A;}
	.st62{fill:#F5851B;}
	.st63{fill:#F5841B;}
	.st64{fill:#F5831B;}
	.st65{fill:#F4821B;}
	.st66{fill:#F4811B;}
	.st67{fill:#F4801C;}
	.st68{fill:#F47F1C;}
	.st69{fill:#F47E1C;}
	.st70{fill:#F47D1C;}
	.st71{fill:#F47C1D;}
	.st72{fill:#F47B1D;}
	.st73{fill:#F47A1D;}
	.st74{fill:#F4791D;}
	.st75{fill:#F4781D;}
	.st76{fill:#F3771E;}
	.st77{fill:#F3761E;}
	.st78{fill:#F3751E;}
	.st79{fill:#F3741E;}
	.st80{fill:#F3731E;}
	.st81{fill:#F3721F;}
	.st82{fill:#F3711F;}
	.st83{fill:#F3701F;}
	.st84{fill:#F36F1F;}
	.st85{fill:#F36E20;}
	.st86{fill:#F36D20;}
	.st87{fill:#F36C20;}
	.st88{fill:#F26B20;}
	.st89{fill:#F26A20;}
	.st90{fill:#F26921;}
	.st91{fill:#F26821;}
	.st92{fill:#F26721;}
	.st93{fill:#F26621;}
	.st94{fill:#F26522;}
	.st95{fill:#F26422;}
	.st96{fill:#F26322;}
	.st97{fill:#F26222;}
	.st98{fill:#F26122;}
	.st99{fill:#F26023;}
	.st100{fill:#F15F23;}
	.st101{fill:#F15E23;}
	.st102{fill:#F15D23;}
	.st103{fill:#F15C24;}
	.st104{fill:#F15B24;}
	.st105{fill:#F15A24;}
	.st106{fill:#FFFF00;}
	.st107{fill:#FFFE00;}
	.st108{fill:#FFFD00;}
	.st109{fill:#FFFC01;}
	.st110{fill:#FFFA01;}
	.st111{fill:#FFF901;}
	.st112{fill:#FEF801;}
	.st113{fill:#FEF702;}
	.st114{fill:#FEF602;}
	.st115{fill:#FEF502;}
	.st116{fill:#FEF402;}
	.st117{fill:#FEF303;}
	.st118{fill:#FEF103;}
	.st119{fill:#FEF003;}
	.st120{fill:#FEEF03;}
	.st121{fill:#FEEE04;}
	.st122{fill:#FDED04;}
	.st123{fill:#FDEC04;}
	.st124{fill:#FDEB04;}
	.st125{fill:#FDEA05;}
	.st126{fill:#FDE805;}
	.st127{fill:#FDE705;}
	.st128{fill:#FDE605;}
	.st129{fill:#FDE506;}
	.st130{fill:#FDE406;}
	.st131{fill:#FDE306;}
	.st132{fill:#FDE206;}
	.st133{fill:#FCE107;}
	.st134{fill:#FCE007;}
	.st135{fill:#FCDE07;}
	.st136{fill:#FCDD07;}
	.st137{fill:#FCDC08;}
	.st138{fill:#FCDB08;}
	.st139{fill:#FCDA08;}
	.st140{fill:#FCD908;}
	.st141{fill:#FCD809;}
	.st142{fill:#FCD709;}
	.st143{fill:#FBD609;}
	.st144{fill:#FBD509;}
	.st145{fill:#FBD30A;}
	.st146{fill:#FBD20A;}
	.st147{fill:#FBD10A;}
	.st148{fill:#FBD00A;}
	.st149{fill:#FBCF0A;}
	.st150{fill:#FBCE0B;}
	.st151{fill:#FBCD0B;}
	.st152{fill:#FBCC0B;}
	.st153{fill:#FBCB0B;}
	.st154{fill:#FACA0C;}
	.st155{fill:#FAC90C;}
	.st156{fill:#FAC70C;}
	.st157{fill:#FAC60C;}
	.st158{fill:#FAC50D;}
	.st159{fill:#F9B80F;}
	.st160{fill:#F8AF11;}
	.st161{fill:#F7A613;}
	.st162{fill:#F7A114;}
	.st163{fill:#F79B16;}
	.st164{fill:#F69816;}
	.st165{fill:#F69517;}
	.st166{fill:#F69318;}
	.st167{fill:#F58F18;}
	.st168{fill:#F58A1A;}
	.st169{fill:#F4831B;}
	.st170{fill:#272223;}
	.st171{fill:#600C0C;}
</style>
<g>
	<g>
		<path class="st0" d="M-57.8,423.4c0,0.1,0.1,0.2,0.1,0.3h0.2C-57.7,423.4-57.8,423.4-57.8,423.4z"/>
		<path class="st1" d="M-57.5,423.6h-0.2c0,0.1,0.1,0.2,0.1,0.3l0.3-0.1C-57.4,423.8-57.5,423.7-57.5,423.6z"/>
		<path class="st2" d="M-57.3,423.9l-0.3,0.1c0,0.1,0.1,0.2,0.1,0.3l0.4-0.1C-57.2,424.1-57.3,424-57.3,423.9z"/>
		<path class="st3" d="M-57.1,424.3l-0.4,0.1c0,0.1,0,0.2,0.1,0.3l0.5-0.1C-57,424.5-57.1,424.4-57.1,424.3z"/>
		<path class="st4" d="M-57,424.6l-0.5,0.1c0,0.1,0,0.2,0.1,0.3l0.5-0.1C-56.9,424.8-56.9,424.7-57,424.6z"/>
		<path class="st5" d="M-56.9,424.9l-0.5,0.1c0,0.1,0,0.2,0,0.3l0.6-0.1C-56.8,425.1-56.8,425-56.9,424.9z"/>
		<path class="st5" d="M-76.3,428.9c0,0.1,0,0.1,0,0.2l0,0C-76.3,428.9-76.3,428.9-76.3,428.9z"/>
		<path class="st6" d="M-56.7,425.2l-0.6,0.1c0,0.1,0,0.2,0,0.3l0.7-0.1C-56.7,425.4-56.7,425.3-56.7,425.2z"/>
		<path class="st6" d="M-76.3,429L-76.3,429c-0.1,0.1-0.1,0.2-0.1,0.4h0.1C-76.3,429.2-76.3,429.1-76.3,429z"/>
		<path class="st7" d="M-56.6,425.5l-0.7,0.1c0,0.1,0,0.2,0,0.3l0.7-0.1C-56.6,425.8-56.6,425.6-56.6,425.5z"/>
		<path class="st7" d="M-76.3,429.4L-76.3,429.4c-0.1,0.1-0.1,0.2-0.1,0.4h0.2C-76.3,429.6-76.3,429.5-76.3,429.4z"/>
		<path class="st8" d="M-76.3,429.7h-0.2c0,0.1,0,0.2,0,0.4h0.2C-76.2,430-76.3,429.8-76.3,429.7z"/>
		<path class="st8" d="M-56.6,425.9l-0.7,0.1c0,0.1,0,0.2,0,0.3l0.8-0.2C-56.5,426.1-56.5,426-56.6,425.9z"/>
		<path class="st9" d="M-56.5,426.2l-0.8,0.2c0,0.1,0,0.2,0,0.3l0.8-0.2C-56.4,426.4-56.5,426.3-56.5,426.2z"/>
		<path class="st9" d="M-76.2,430.1h-0.2c0,0.1,0,0.2,0,0.4l0.3-0.1C-76.2,430.3-76.2,430.2-76.2,430.1z"/>
		<path class="st10" d="M-76.2,430.4l-0.3,0.1c0,0.1,0,0.2,0,0.3l0.3-0.1C-76.2,430.6-76.2,430.5-76.2,430.4z"/>
		<path class="st10" d="M-56.4,426.6l-0.8,0.2c0,0.1,0,0.2,0,0.3l0.9-0.2C-56.4,426.8-56.4,426.7-56.4,426.6z"/>
		<path class="st11" d="M-76.2,430.8l-0.3,0.1c0,0.1,0,0.2,0,0.3l0.4-0.1C-76.1,431-76.2,430.9-76.2,430.8z"/>
		<path class="st11" d="M-56.4,426.9l-0.9,0.2c0,0.1,0,0.2,0,0.4l0.9-0.2C-56.4,427.1-56.4,427-56.4,426.9z"/>
		<path class="st12" d="M-56.4,427.2l-0.9,0.2c0,0.1,0,0.2,0,0.4l1-0.2C-56.3,427.5-56.4,427.3-56.4,427.2z"/>
		<path class="st12" d="M-66.7,429.3c-0.1,0.1-0.1,0.2-0.2,0.3l0.4-0.1L-66.7,429.3z"/>
		<path class="st12" d="M-76.1,431.1l-0.4,0.1c0,0.1,0,0.2,0,0.3l0.4-0.1C-76.1,431.3-76.1,431.2-76.1,431.1z"/>
		<path class="st13" d="M-66.5,429.6l-0.4,0.1c-0.1,0.1-0.2,0.3-0.3,0.4l0.9-0.2L-66.5,429.6z"/>
		<path class="st13" d="M-76.1,431.4l-0.4,0.1c0,0.1,0,0.2,0,0.3l0.5-0.1C-76,431.7-76,431.6-76.1,431.4z"/>
		<path class="st13" d="M-56.3,427.6l-1,0.2c0,0.1,0,0.2,0,0.4l1-0.2C-56.3,427.8-56.3,427.7-56.3,427.6z"/>
		<path class="st14" d="M-56.3,427.9l-1,0.2c0,0.1,0,0.2,0,0.4l1.1-0.2C-56.3,428.2-56.3,428-56.3,427.9z"/>
		<path class="st14" d="M-76,431.8l-0.5,0.1c0,0.1,0,0.2,0,0.3l0.5-0.1C-76,432-76,431.9-76,431.8z"/>
		<path class="st14" d="M-66.2,429.9l-0.9,0.2c-0.1,0.1-0.2,0.3-0.2,0.4l1.4-0.3L-66.2,429.9z"/>
		<path class="st15" d="M-75.9,432.1l-0.5,0.1c0,0.1,0,0.2,0,0.3l0.5-0.1C-75.9,432.3-75.9,432.2-75.9,432.1z"/>
		<path class="st15" d="M-56.3,428.3l-1.1,0.2c0,0.1,0,0.2,0,0.4l1.1-0.2C-56.4,428.5-56.3,428.4-56.3,428.3z"/>
		<path class="st15" d="M-65.9,430.2l-1.4,0.3c-0.1,0.1-0.1,0.3-0.2,0.4l1.9-0.4L-65.9,430.2z"/>
		<path class="st16" d="M-56.4,428.6l-1.1,0.2c0,0.1,0,0.2-0.1,0.4l1.1-0.2C-56.4,428.9-56.4,428.7-56.4,428.6z"/>
		<path class="st16" d="M-65.6,430.4l-1.9,0.4c-0.1,0.1-0.1,0.3-0.2,0.4l2.3-0.5L-65.6,430.4z"/>
		<path class="st16" d="M-75.9,432.4l-0.5,0.1c0,0.1,0,0.2,0.1,0.3l0.6-0.1C-75.8,432.7-75.8,432.6-75.9,432.4z"/>
		<path class="st17" d="M-75.8,432.8l-0.6,0.1c0,0.1,0,0.2,0.1,0.3l0.6-0.1C-75.7,433-75.7,432.9-75.8,432.8z"/>
		<path class="st17" d="M-56.4,429l-1.1,0.2c0,0.1,0,0.2-0.1,0.4l1.2-0.2C-56.4,429.2-56.4,429.1-56.4,429z"/>
		<path class="st17" d="M-65.4,430.7l-2.3,0.5c0,0.1-0.1,0.2-0.1,0.4l2.7-0.5L-65.4,430.7z"/>
		<path class="st18" d="M-56.4,429.3l-1.2,0.2c0,0.1-0.1,0.2-0.1,0.4l1.2-0.2C-56.5,429.6-56.4,429.5-56.4,429.3z"/>
		<path class="st18" d="M-75.7,433.1l-0.6,0.1c0,0.1,0,0.2,0.1,0.3l0.7-0.1C-75.6,433.3-75.6,433.2-75.7,433.1z"/>
		<path class="st18" d="M-65.1,431l-2.7,0.5c0,0.1-0.1,0.2-0.1,0.4l3.1-0.6L-65.1,431z"/>
		<path class="st19" d="M-64.8,431.3l-3.1,0.6c0,0.1,0,0.2-0.1,0.4l3.4-0.7L-64.8,431.3z"/>
		<path class="st19" d="M-75.6,433.4l-0.7,0.1c0,0.1,0,0.2,0.1,0.3l0.7-0.1C-75.5,433.7-75.5,433.5-75.6,433.4z"/>
		<path class="st19" d="M-56.5,429.7l-1.2,0.2c0,0.1-0.1,0.2-0.1,0.4l1.2-0.2C-56.5,429.9-56.5,429.8-56.5,429.7z"/>
		<path class="st20" d="M-64.3,431.9l-0.2-0.3l-3.4,0.7c0,0.1,0,0.2,0,0.4L-64.3,431.9C-64.4,431.9-64.3,431.9-64.3,431.9z"/>
		<path class="st20" d="M-56.5,430.1l-1.2,0.2c0,0.1-0.1,0.2-0.1,0.4l1.3-0.2C-56.6,430.3-56.6,430.2-56.5,430.1z"/>
		<path class="st20" d="M-75.4,433.8l-0.7,0.1c0,0.1,0.1,0.2,0.1,0.3l0.8-0.1C-75.4,434-75.4,433.9-75.4,433.8z"/>
		<path class="st21" d="M-64.4,431.9l-3.6,0.7c0,0.1,0,0.2,0,0.4l3.1-0.6C-64.7,432.2-64.5,432-64.4,431.9z"/>
		<path class="st21" d="M-56.6,430.4l-1.3,0.2c0,0.1-0.1,0.2-0.1,0.4l1.3-0.3C-56.6,430.7-56.6,430.5-56.6,430.4z"/>
		<path class="st21" d="M-75.3,434.1l-0.8,0.1c0,0.1,0.1,0.2,0.1,0.3l0.8-0.2C-75.2,434.3-75.3,434.2-75.3,434.1z"/>
		<path class="st22" d="M-75.2,434.4l-0.8,0.2c0,0.1,0.1,0.2,0.1,0.3l0.9-0.2C-75.1,434.6-75.1,434.5-75.2,434.4z"/>
		<path class="st22" d="M-56.7,430.8l-1.3,0.3c0,0.1-0.1,0.2-0.1,0.4l1.3-0.3C-56.7,431-56.7,430.9-56.7,430.8z"/>
		<path class="st22" d="M-64.9,432.4L-68,433c0,0.1,0,0.2,0,0.4l2.7-0.5C-65.2,432.7-65.1,432.5-64.9,432.4z"/>
		<path class="st23" d="M-65.3,432.8l-2.7,0.5c0,0.1,0,0.2,0,0.3l2.4-0.5C-65.6,433.1-65.4,433-65.3,432.8z"/>
		<path class="st23" d="M-56.8,431.1l-1.3,0.3c0,0.1-0.1,0.3-0.1,0.4l1.3-0.3C-56.8,431.4-56.8,431.3-56.8,431.1z"/>
		<path class="st23" d="M-75,434.7l-0.9,0.2c0,0.1,0.1,0.2,0.1,0.3l0.9-0.2C-74.9,434.9-74.9,434.8-75,434.7z"/>
		<path class="st24" d="M-56.8,431.5l-1.3,0.3c0,0.1-0.1,0.3-0.1,0.4l1.4-0.3C-56.9,431.8-56.9,431.6-56.8,431.5z"/>
		<path class="st24" d="M-65.7,433.2l-2.4,0.5c0,0.1,0,0.2,0,0.3l2.1-0.4C-65.8,433.5-65.8,433.4-65.7,433.2z"/>
		<path class="st24" d="M-74.8,435l-1,0.2c0,0.1,0.1,0.2,0.1,0.3l1-0.2C-74.7,435.2-74.8,435.1-74.8,435z"/>
		<path class="st25" d="M-56.9,431.9l-1.4,0.3c0,0.1-0.1,0.3-0.1,0.4l1.4-0.3C-57,432.1-57,432-56.9,431.9z"/>
		<path class="st25" d="M-65.9,433.6L-68,434c0,0.1,0,0.2,0,0.3l1.9-0.4C-66.1,433.9-66,433.8-65.9,433.6z"/>
		<path class="st25" d="M-74.6,435.3l-1,0.2c0,0.1,0.1,0.2,0.1,0.3l1.1-0.2C-74.5,435.6-74.6,435.5-74.6,435.3z"/>
		<path class="st26" d="M-74.4,435.7l-1.1,0.2c0,0.1,0.1,0.2,0.1,0.3l1.2-0.2C-74.3,435.9-74.4,435.8-74.4,435.7z"/>
		<path class="st26" d="M-57.1,432.2l-1.4,0.3c-0.1,0.1-0.1,0.3-0.2,0.4l1.5-0.3C-57.1,432.5-57.1,432.4-57.1,432.2z"/>
		<path class="st26" d="M-66.1,434l-1.9,0.4c0,0.1,0,0.2,0,0.3l1.8-0.4C-66.2,434.3-66.2,434.1-66.1,434z"/>
		<path class="st27" d="M-57.3,432.9c0-0.1,0.1-0.2,0.1-0.3l-1.5,0.3c-0.1,0.1-0.1,0.3-0.2,0.4L-57.3,432.9
			C-57.3,433-57.3,433-57.3,432.9z"/>
		<path class="st27" d="M-74.2,436l-1.2,0.2c0,0.1,0.1,0.2,0.2,0.3l1.2-0.2C-74,436.2-74.1,436.1-74.2,436z"/>
		<path class="st27" d="M-66.2,434.4l-1.8,0.4c0,0.1,0,0.2,0,0.3l1.7-0.3C-66.3,434.6-66.2,434.5-66.2,434.4z"/>
		<path class="st28" d="M-57.3,433l-1.5,0.3c-0.1,0.1-0.1,0.3-0.2,0.4l1.6-0.3C-57.4,433.2-57.3,433.1-57.3,433z"/>
		<path class="st28" d="M-66.3,434.7L-68,435c0,0.1,0,0.2,0,0.3l1.7-0.3C-66.3,435-66.3,434.9-66.3,434.7z"/>
		<path class="st28" d="M-74,436.3l-1.2,0.2c0.1,0.1,0.1,0.2,0.2,0.3l1.4-0.3C-73.8,436.5-73.9,436.4-74,436.3z"/>
		<path class="st29" d="M-57.4,433.4l-1.6,0.3c-0.1,0.1-0.1,0.3-0.2,0.4l1.7-0.3C-57.5,433.6-57.4,433.5-57.4,433.4z"/>
		<path class="st29" d="M-66.2,435.1l-1.7,0.3c0,0.1,0,0.2,0.1,0.3l1.7-0.3C-66.2,435.3-66.2,435.2-66.2,435.1z"/>
		<path class="st29" d="M-73.7,436.6l-1.3,0.2c0.1,0.1,0.1,0.2,0.2,0.3l1.5-0.3C-73.5,436.7-73.6,436.7-73.7,436.6z"/>
		<path class="st30" d="M-73.4,436.8l-1.5,0.3c0.1,0.1,0.1,0.2,0.2,0.3l1.6-0.3C-73.2,437-73.3,436.9-73.4,436.8z"/>
		<path class="st30" d="M-66.2,435.4l-1.7,0.3c0,0.1,0,0.2,0.1,0.3l1.8-0.4C-66.1,435.6-66.1,435.5-66.2,435.4z"/>
		<path class="st30" d="M-57.5,433.7l-1.7,0.3c-0.1,0.1-0.2,0.3-0.3,0.4l1.9-0.4C-57.6,434-57.5,433.9-57.5,433.7z"/>
		<path class="st31" d="M-66,435.7l-1.8,0.4c0,0.1,0,0.2,0.1,0.3l2-0.4C-65.8,435.9-65.9,435.8-66,435.7z"/>
		<path class="st31" d="M-57.6,434.1l-1.9,0.4c-0.1,0.1-0.1,0.2-0.2,0.3l-0.1,0.1l2.2-0.4C-57.6,434.3-57.6,434.2-57.6,434.1z"/>
		<path class="st31" d="M-72.9,437.3c0-0.1-0.1-0.1-0.1-0.2l-1.6,0.3c0.1,0.1,0.1,0.2,0.2,0.3l1.8-0.3
			C-72.7,437.4-72.8,437.3-72.9,437.3z"/>
		<path class="st32" d="M-65.7,436l-2,0.4c0,0.1,0,0.2,0.1,0.3l2.3-0.4C-65.6,436.2-65.7,436.1-65.7,436z"/>
		<path class="st32" d="M-72.7,437.4l-1.8,0.3c0.1,0.1,0.1,0.2,0.2,0.3l2-0.4C-72.4,437.6-72.6,437.5-72.7,437.4z"/>
		<path class="st32" d="M-57.6,434.5l-2.2,0.4c-0.1,0.1-0.2,0.3-0.3,0.4l2.5-0.5C-57.7,434.7-57.7,434.6-57.6,434.5z"/>
		<path class="st33" d="M-65.4,436.3l-2.3,0.4c0,0.1,0,0.2,0.1,0.3c0,0,0,0,0,0.1l2.6-0.5C-65.2,436.5-65.3,436.4-65.4,436.3z"/>
		<path class="st33" d="M-57.7,434.8l-2.5,0.5c-0.1,0.1-0.2,0.3-0.4,0.4l2.9-0.6C-57.7,435-57.7,434.9-57.7,434.8z"/>
		<path class="st33" d="M-72.3,437.7l-2,0.4c0.1,0.1,0.2,0.2,0.2,0.3l2.2-0.4C-71.9,437.8-72.1,437.8-72.3,437.7z"/>
		<path class="st34" d="M-57.7,435.2l-2.9,0.6c-0.1,0.1-0.3,0.3-0.4,0.4l3.3-0.7C-57.6,435.4-57.7,435.3-57.7,435.2z"/>
		<path class="st34" d="M-65.1,436.6l-2.6,0.5c0,0.1,0,0.2,0,0.3l3-0.6C-64.8,436.8-64.9,436.7-65.1,436.6z"/>
		<path class="st34" d="M-71.8,437.9l-2.2,0.5c0.1,0.1,0.2,0.2,0.3,0.3l2.5-0.5C-71.4,438.1-71.6,438-71.8,437.9z"/>
		<path class="st35" d="M-64.3,437c-0.1,0-0.2-0.1-0.3-0.1l-3,0.6c0,0.1,0,0.2,0,0.4l3.6-0.7C-64.1,437.1-64.2,437-64.3,437z"/>
		<path class="st35" d="M-57.6,435.5l-3.3,0.7c-0.2,0.2-0.4,0.3-0.6,0.5l4-0.8C-57.6,435.7-57.6,435.6-57.6,435.5z"/>
		<path class="st35" d="M-71.2,438.2l-2.5,0.5c0.1,0.1,0.2,0.2,0.3,0.3l2.8-0.5C-70.9,438.3-71.1,438.3-71.2,438.2z"/>
		<path class="st36" d="M-70.6,438.4l-2.8,0.5c0.1,0.1,0.2,0.2,0.3,0.3l3.2-0.6C-70.2,438.6-70.4,438.5-70.6,438.4z"/>
		<path class="st36" d="M-57.5,435.8l-4,0.8c-0.7,0.5-1.6,0.8-2.5,0.5l-3.6,0.7c0,0.1-0.1,0.3-0.1,0.4l10.3-2
			C-57.4,436-57.5,435.9-57.5,435.8z"/>
		<path class="st37" d="M-69.9,438.6l-3.2,0.6l0.1,0.1c0.1,0.1,0.1,0.1,0.2,0.2l4-0.8C-69.2,438.8-69.6,438.7-69.9,438.6z"/>
		<path class="st37" d="M-57.4,436.1l-10.3,2c-0.1,0.2-0.3,0.3-0.5,0.4l11.1-2.2C-57.2,436.3-57.3,436.3-57.4,436.1z"/>
		<path class="st38" d="M-57.1,436.4l-11.1,2.2c-0.2,0.1-0.4,0.1-0.7,0.1l-4,0.8c0.1,0.1,0.2,0.2,0.3,0.3l15.8-3.1
			C-56.9,436.6-57,436.5-57.1,436.4z"/>
		<path class="st39" d="M-56.8,436.7l-15.8,3.1c0.1,0.1,0.2,0.2,0.2,0.3l15.9-3.1C-56.5,436.9-56.7,436.8-56.8,436.7z"/>
		<path class="st40" d="M-56.4,437l-15.9,3.1c0.1,0.1,0.1,0.2,0.2,0.3l16.1-3.2C-56.1,437.2-56.3,437.1-56.4,437z"/>
		<path class="st41" d="M-56,437.3l-16.1,3.2c0.1,0.1,0.1,0.2,0.2,0.3l16.3-3.2C-55.8,437.4-55.9,437.4-56,437.3z"/>
		<path class="st42" d="M-55.6,437.5l-16.4,3.2c0,0.1,0.1,0.2,0.1,0.3l16.5-3.2C-55.4,437.7-55.5,437.6-55.6,437.5z"/>
		<path class="st43" d="M-56.7,438.4l1.6-0.3c-0.1-0.1-0.2-0.2-0.2-0.3l-16.5,3.2c0,0.1,0.1,0.2,0.1,0.3l14.5-2.8
			C-57.1,438.5-56.9,438.4-56.7,438.4z"/>
		<path class="st44" d="M-56.1,438.7l1.2-0.2c-0.1-0.1-0.1-0.2-0.2-0.3l-1.6,0.3C-56.5,438.5-56.3,438.6-56.1,438.7z"/>
		<path class="st44" d="M-57.3,438.6l-14.5,2.8c0,0.1,0,0.2,0.1,0.3l14-2.7C-57.6,438.8-57.4,438.7-57.3,438.6z"/>
		<path class="st45" d="M-57.7,439l-14,2.7c0,0.1,0,0.2,0,0.3l13.8-2.7C-57.8,439.2-57.8,439.1-57.7,439z"/>
		<path class="st45" d="M-55.7,439l1-0.2c0-0.1-0.1-0.2-0.2-0.3l-1.2,0.2C-56,438.8-55.8,438.8-55.7,439z"/>
		<path class="st46" d="M-57.9,439.5c0-0.1,0-0.1,0.1-0.2l-13.8,2.7c0,0.1,0,0.2,0,0.4l13.8-2.7C-57.9,439.7-57.9,439.6-57.9,439.5z
			"/>
		<path class="st46" d="M-55.4,439.2l0.8-0.2c0-0.1-0.1-0.2-0.1-0.3l-1,0.2C-55.6,439-55.5,439.1-55.4,439.2z"/>
		<path class="st47" d="M-57.9,439.7l-13.8,2.7c0,0.1,0,0.2,0,0.4l13.8-2.7C-58,440-58,439.9-57.9,439.7z"/>
		<path class="st47" d="M-55.2,439.5l0.6-0.1c0-0.1-0.1-0.2-0.1-0.3l-0.8,0.2C-55.3,439.3-55.3,439.4-55.2,439.5z"/>
		<path class="st48" d="M-57.9,440.1l-13.8,2.7c0,0.1,0,0.2-0.1,0.4l13.9-2.7C-57.9,440.3-57.9,440.2-57.9,440.1z"/>
		<path class="st48" d="M-55,439.9l0.5-0.1c0-0.1,0-0.2,0-0.3l-0.6,0.1C-55.1,439.6-55,439.7-55,439.9z"/>
		<path class="st49" d="M-54.8,440.2l0.3-0.1c0-0.1,0-0.2,0-0.3l-0.5,0.1C-54.9,440-54.9,440.1-54.8,440.2z"/>
		<path class="st49" d="M-57.9,440.4l-13.9,2.8c0,0.1,0,0.2-0.1,0.4l14.2-2.8C-57.8,440.6-57.8,440.5-57.9,440.4z"/>
		<path class="st50" d="M-54.7,440.5h0.2c0-0.1,0-0.2,0-0.3l-0.3,0.1C-54.8,440.3-54.7,440.4-54.7,440.5z"/>
		<path class="st50" d="M-57.7,440.7l-14.2,2.8c0,0.1-0.1,0.2-0.1,0.4l14.5-2.8C-57.5,440.9-57.6,440.8-57.7,440.7z"/>
		<path class="st51" d="M-54.6,440.8L-54.6,440.8c0.1-0.1,0.1-0.3,0.1-0.4h-0.2C-54.6,440.6-54.6,440.7-54.6,440.8z"/>
		<path class="st51" d="M-57.4,441l-14.6,2.9c0,0.1-0.1,0.2-0.1,0.4l14.9-2.9C-57.2,441.2-57.3,441.1-57.4,441z"/>
		<path class="st52" d="M-54.5,441.2L-54.5,441.2c0-0.1,0-0.2,0-0.4h-0.1C-54.5,440.9-54.5,441-54.5,441.2z"/>
		<path class="st52" d="M-57.1,441.3l-14.9,2.9c0,0.1-0.1,0.2-0.1,0.4l5.7-1.1c0.1-0.1,0.2-0.2,0.3-0.2c0.2-0.1,0.4-0.1,0.6,0
			l8.7-1.7C-56.9,441.5-57,441.4-57.1,441.3z"/>
		<path class="st53" d="M-56.8,441.6l-8.7,1.7c0.1,0.1,0.2,0.2,0.3,0.3l8.7-1.7C-56.6,441.8-56.7,441.7-56.8,441.6z"/>
		<path class="st53" d="M-54.5,441.2L-54.5,441.2L-54.5,441.2z"/>
		<path class="st53" d="M-72.3,445l5.6-1.1c0.1-0.2,0.1-0.3,0.2-0.4l-5.7,1.1C-72.2,444.7-72.3,444.9-72.3,445z"/>
		<path class="st54" d="M-72.5,445.4l5.7-1.1c0-0.1,0-0.3,0.1-0.4l-5.6,1.1C-72.4,445.1-72.4,445.2-72.5,445.4z"/>
		<path class="st54" d="M-56.5,441.9l-8.7,1.7c0.1,0.1,0.2,0.2,0.2,0.3l8.8-1.7C-56.2,442.1-56.3,442-56.5,441.9z"/>
		<path class="st55" d="M-72.6,445.8l5.8-1.1c0-0.1,0-0.2,0-0.3l-5.7,1.1C-72.5,445.5-72.6,445.6-72.6,445.8z"/>
		<path class="st55" d="M-56.1,442.2l-8.8,1.7c0.1,0.1,0.1,0.2,0.1,0.3l9-1.8C-55.9,442.4-56,442.3-56.1,442.2z"/>
		<path class="st56" d="M-72.8,446.1l6-1.2c0-0.1,0-0.2,0-0.3l-5.8,1.1C-72.7,445.9-72.7,446-72.8,446.1z"/>
		<path class="st56" d="M-55.8,442.5l-9,1.8c0,0.1,0,0.1,0,0.2s0,0.1,0,0.2l9.2-1.8C-55.6,442.6-55.7,442.5-55.8,442.5z"/>
		<path class="st57" d="M-55.5,442.8l-9.2,1.8c0,0.1,0,0.2,0,0.3l9.4-1.8C-55.4,442.9-55.5,442.8-55.5,442.8z"/>
		<path class="st57" d="M-72.9,446.4c0,0,0,0.1-0.1,0.1l1.7-0.3c0.2-0.2,0.4-0.3,0.6-0.4c0.3-0.1,0.5-0.1,0.7,0.1l3.3-0.6
			c0-0.1-0.1-0.2-0.1-0.3l-6,1.2C-72.8,446.2-72.8,446.3-72.9,446.4z"/>
		<path class="st58" d="M-69.8,446.2l3.2-0.6v-0.1c0-0.1-0.1-0.1-0.1-0.2l-3.3,0.6C-69.9,446-69.8,446.1-69.8,446.2z"/>
		<path class="st58" d="M-55.3,443.1l-9.4,1.8c0,0.1,0,0.2,0,0.3l9.6-1.9C-55.2,443.3-55.2,443.1-55.3,443.1z"/>
		<path class="st58" d="M-73.1,446.9l1.4-0.3c0.2-0.2,0.3-0.3,0.4-0.4l-1.7,0.3C-73,446.6-73,446.8-73.1,446.9z"/>
		<path class="st59" d="M-73.2,447.3l1.2-0.2c0.1-0.2,0.2-0.3,0.3-0.4l-1.4,0.3C-73.1,447-73.2,447.1-73.2,447.3z"/>
		<path class="st59" d="M-69.7,446.6l3.3-0.7c0-0.1-0.1-0.2-0.1-0.3l-3.2,0.6C-69.7,446.3-69.7,446.4-69.7,446.6z"/>
		<path class="st59" d="M-55.1,443.4l-9.6,1.9c0,0.1,0,0.2,0,0.4l9.8-1.9C-55,443.6-55,443.5-55.1,443.4z"/>
		<path class="st60" d="M-73.4,447.6l1.1-0.2c0.1-0.1,0.2-0.3,0.3-0.4l-1.2,0.2C-73.3,447.4-73.3,447.5-73.4,447.6z"/>
		<path class="st60" d="M-69.7,446.9l3.4-0.7c0-0.1-0.1-0.2-0.1-0.3l-3.3,0.7C-69.7,446.7-69.7,446.8-69.7,446.9z"/>
		<path class="st60" d="M-54.9,443.7l-9.8,1.9c0,0.1,0,0.2-0.1,0.4l10-2C-54.8,443.9-54.9,443.8-54.9,443.7z"/>
		<path class="st61" d="M-56.6,444.7l2-0.4c0-0.1-0.1-0.2-0.1-0.3l-10,2c0,0.1,0,0.2-0.1,0.4l6.4-1.3
			C-57.9,444.6-57.2,444.5-56.6,444.7z"/>
		<path class="st61" d="M-73.5,448l0.9-0.2c0.1-0.1,0.2-0.3,0.2-0.4l-1.1,0.2C-73.4,447.8-73.5,447.9-73.5,448z"/>
		<path class="st61" d="M-69.8,447.3l3.6-0.7c0-0.1-0.1-0.2-0.1-0.3l-3.4,0.7C-69.8,447-69.8,447.2-69.8,447.3z"/>
		<path class="st62" d="M-62.6,446.2l3.7-0.7c0.1-0.2,0.3-0.3,0.5-0.4l-6.4,1.3c0,0.1-0.1,0.2-0.1,0.4l2.2-0.4
			C-62.7,446.2-62.6,446.2-62.6,446.2z"/>
		<path class="st62" d="M-69.9,447.6l3.7-0.7c0-0.1,0-0.2,0-0.3l-3.6,0.7C-69.8,447.4-69.8,447.5-69.9,447.6z"/>
		<path class="st62" d="M-56.3,445l1.7-0.3c0-0.1-0.1-0.2-0.1-0.3l-2,0.4C-56.5,444.8-56.4,444.9-56.3,445z"/>
		<path class="st62" d="M-73.6,448.4l0.9-0.2c0.1-0.1,0.1-0.3,0.2-0.4l-0.9,0.2C-73.5,448.1-73.6,448.3-73.6,448.4z"/>
		<path class="st63" d="M-73.7,448.8l0.8-0.2c0.1-0.1,0.1-0.3,0.2-0.4l-0.9,0.2C-73.7,448.5-73.7,448.6-73.7,448.8z"/>
		<path class="st63" d="M-63,446.4c0,0,0.1-0.1,0.3-0.2l-2.2,0.4c0,0.1-0.1,0.2-0.1,0.4l1.8-0.4C-63.1,446.5-63,446.5-63,446.4z"/>
		<path class="st63" d="M-56.1,445.3l1.5-0.3c0-0.1,0-0.2,0-0.3l-1.7,0.3C-56.2,445.1-56.2,445.2-56.1,445.3z"/>
		<path class="st63" d="M-70,448l2.2-0.4c0.1-0.1,0.2-0.1,0.3-0.2c0.1,0,0.2,0,0.3,0l1.1-0.2c0-0.1,0-0.2,0-0.3l-3.7,0.7
			C-69.9,447.8-69.9,447.9-70,448z"/>
		<path class="st63" d="M-62.3,446.5l3.1-0.6c0.1-0.1,0.2-0.3,0.3-0.4l-3.7,0.7C-62.5,446.2-62.4,446.3-62.3,446.5z"/>
		<path class="st64" d="M-62.2,446.7c0,0.1,0,0.1,0,0.2l2.9-0.6c0-0.1,0.1-0.3,0.2-0.4l-3.1,0.6C-62.3,446.6-62.3,446.6-62.2,446.7z
			"/>
		<path class="st64" d="M-73.8,449.1l0.8-0.1c0-0.1,0.1-0.3,0.1-0.4l-0.8,0.2C-73.8,448.9-73.8,449-73.8,449.1z"/>
		<path class="st64" d="M-67,447.8l0.8-0.2c0-0.1,0-0.2,0-0.3l-1.1,0.2C-67.1,447.5-67,447.6-67,447.8z"/>
		<path class="st64" d="M-56,445.6l1.5-0.3c0-0.1,0-0.2,0-0.3l-1.5,0.3C-56.1,445.4-56,445.5-56,445.6z"/>
		<path class="st64" d="M-63.2,446.7l-1.8,0.4c0,0.1-0.1,0.2-0.1,0.4l1.7-0.3C-63.3,446.9-63.2,446.8-63.2,446.7z"/>
		<path class="st64" d="M-70.1,448.4l1.9-0.4c0.1-0.2,0.2-0.3,0.3-0.4l-2.2,0.4C-70,448.1-70,448.3-70.1,448.4z"/>
		<path class="st65" d="M-62.1,447.2l2.7-0.5c0-0.1,0-0.2,0.1-0.4l-2.9,0.6C-62.2,447-62.2,447.1-62.1,447.2z"/>
		<path class="st65" d="M-63.4,447.1l-1.7,0.3c0,0.1-0.1,0.3-0.1,0.4l1.7-0.3C-63.6,447.3-63.5,447.2-63.4,447.1z"/>
		<path class="st65" d="M-55.9,446l1.4-0.3c0-0.1,0-0.2,0-0.3l-1.5,0.3C-56,445.7-56,445.8-55.9,446z"/>
		<path class="st65" d="M-66.9,448.1l0.7-0.1c0-0.1,0-0.2,0-0.4l-0.8,0.2C-66.9,447.9-66.9,448-66.9,448.1z"/>
		<path class="st65" d="M-73.9,449.5l0.7-0.1c0-0.1,0.1-0.3,0.1-0.4l-0.8,0.1C-73.9,449.2-73.9,449.4-73.9,449.5z"/>
		<path class="st65" d="M-70.1,448.6c0,0.1,0,0.1-0.1,0.2l1.8-0.4c0.1-0.1,0.1-0.3,0.2-0.4l-1.9,0.4
			C-70.1,448.4-70.1,448.5-70.1,448.6z"/>
		<path class="st66" d="M-63.6,447.5l-1.7,0.3c0,0.1-0.1,0.3-0.2,0.4l1.7-0.3C-63.7,447.7-63.7,447.6-63.6,447.5z"/>
		<path class="st66" d="M-55.9,446.3l1.4-0.3c0-0.1,0-0.2,0-0.4l-1.4,0.3C-55.9,446.1-55.9,446.2-55.9,446.3z"/>
		<path class="st66" d="M-70.3,449.1l1.8-0.4c0.1-0.1,0.1-0.3,0.2-0.4l-1.8,0.4C-70.2,448.9-70.2,449-70.3,449.1z"/>
		<path class="st66" d="M-62,447.5l2.6-0.5c0-0.1,0-0.2,0-0.3l-2.7,0.5C-62.1,447.3-62,447.4-62,447.5z"/>
		<path class="st66" d="M-74,449.9l0.6-0.1c0-0.1,0.1-0.2,0.1-0.4l-0.7,0.1C-74,449.6-74,449.7-74,449.9z"/>
		<path class="st66" d="M-66.9,448.5l0.7-0.1c0-0.1,0-0.2,0.1-0.4l-0.7,0.1C-66.9,448.2-66.9,448.3-66.9,448.5z"/>
		<path class="st67" d="M-70.4,449.5l1.8-0.3c0-0.1,0.1-0.3,0.1-0.4l-1.8,0.4C-70.3,449.2-70.4,449.4-70.4,449.5z"/>
		<path class="st67" d="M-74,450.2l0.6-0.1c0-0.1,0.1-0.2,0.1-0.4l-0.7,0.2C-74,450-74,450.1-74,450.2z"/>
		<path class="st67" d="M-67,448.8l0.6-0.1c0-0.1,0.1-0.2,0.1-0.4l-0.7,0.1C-66.9,448.6-67,448.7-67,448.8z"/>
		<path class="st67" d="M-63.8,447.9l-1.7,0.3c-0.1,0.1-0.1,0.3-0.2,0.4l1.7-0.3C-63.8,448.1-63.8,448-63.8,447.9z"/>
		<path class="st67" d="M-55.9,446.7l1.4-0.3c0-0.1,0-0.2,0-0.4l-1.4,0.3C-55.9,446.4-55.9,446.5-55.9,446.7z"/>
		<path class="st67" d="M-61.9,447.6c0.1,0.1,0.1,0.1,0.2,0.2l2.4-0.5c0-0.1-0.1-0.2-0.1-0.3l-2.6,0.5
			C-62,447.6-61.9,447.6-61.9,447.6z"/>
		<path class="st68" d="M-70.5,449.9l1.8-0.3c0-0.1,0.1-0.3,0.1-0.4l-1.8,0.3C-70.4,449.6-70.5,449.7-70.5,449.9z"/>
		<path class="st68" d="M-67.1,449.2l0.6-0.1c0-0.1,0.1-0.2,0.1-0.4l-0.6,0.1C-67,448.9-67,449.1-67.1,449.2z"/>
		<path class="st68" d="M-61.6,447.9c0.1,0.1,0.2,0.1,0.3,0.2l2.1-0.4c-0.1-0.1-0.1-0.2-0.2-0.3l-2.4,0.5
			C-61.7,447.8-61.6,447.9-61.6,447.9z"/>
		<path class="st68" d="M-63.9,448.5c0-0.1,0-0.2,0-0.2l-1.7,0.3c-0.1,0.1-0.1,0.3-0.2,0.4l1.9-0.4
			C-63.9,448.5-63.9,448.5-63.9,448.5z"/>
		<path class="st68" d="M-74.1,450.6l0.5-0.1c0-0.1,0.1-0.2,0.1-0.4l-0.5,0.1C-74,450.3-74,450.4-74.1,450.6z"/>
		<path class="st68" d="M-56,447l1.3-0.3c0-0.1,0-0.2,0.1-0.4l-1.4,0.3C-56,446.8-56,446.9-56,447z"/>
		<path class="st69" d="M-74.1,450.9l0.5-0.1c0-0.1,0.1-0.2,0.1-0.4l-0.5,0.1C-74.1,450.7-74.1,450.8-74.1,450.9z"/>
		<path class="st69" d="M-70.6,450.2l1.7-0.3c0-0.1,0.1-0.3,0.1-0.4l-1.8,0.3C-70.5,450-70.5,450.1-70.6,450.2z"/>
		<path class="st69" d="M-60.9,448.3l1.9-0.4c0,0,0-0.1-0.1-0.1c-0.1-0.1-0.1-0.1-0.1-0.2l-2.1,0.4C-61.2,448.1-61,448.2-60.9,448.3
			z"/>
		<path class="st69" d="M-63.9,448.6l-1.9,0.4c-0.1,0.1-0.1,0.3-0.2,0.4l2.2-0.4C-63.8,448.8-63.9,448.7-63.9,448.6z"/>
		<path class="st69" d="M-67.2,449.6l0.5-0.1c0.1-0.1,0.1-0.2,0.2-0.4l-0.6,0.1C-67.1,449.3-67.1,449.4-67.2,449.6z"/>
		<path class="st69" d="M-56,447.4l1.3-0.3c0-0.1,0.1-0.2,0.1-0.4l-1.3,0.3C-56,447.1-56,447.3-56,447.4z"/>
		<path class="st70" d="M-63.8,448.9l-2.2,0.4c-0.1,0.1-0.2,0.3-0.2,0.4l2.6-0.5C-63.7,449.1-63.8,449-63.8,448.9z"/>
		<path class="st70" d="M-60.5,448.6l1.7-0.3c-0.1-0.1-0.1-0.2-0.2-0.3l-1.9,0.4C-60.7,448.4-60.6,448.5-60.5,448.6z"/>
		<path class="st70" d="M-74,451.3l0.4-0.1c0-0.1,0-0.2,0.1-0.4l-0.5,0.1C-74,451-74,451.1-74,451.3z"/>
		<path class="st70" d="M-70.6,450.6l1.7-0.3c0-0.1,0.1-0.3,0.1-0.4l-1.7,0.3C-70.6,450.4-70.6,450.5-70.6,450.6z"/>
		<path class="st70" d="M-56.1,447.7l1.3-0.3c0-0.1,0.1-0.2,0.1-0.4l-1.3,0.3C-56.1,447.5-56.1,447.6-56.1,447.7z"/>
		<path class="st70" d="M-67.3,449.9l0.5-0.1c0.1-0.1,0.1-0.2,0.2-0.4l-0.5,0.1C-67.2,449.7-67.2,449.8-67.3,449.9z"/>
		<path class="st71" d="M-56.2,448C-56.2,448-56.2,448.1-56.2,448l1.3-0.2c0-0.1,0.1-0.2,0.1-0.4l-1.3,0.3
			C-56.1,447.8-56.2,447.9-56.2,448z"/>
		<path class="st71" d="M-74,451.6l0.3-0.1c0-0.1,0-0.2,0-0.4l-0.3,0.2C-74,451.4-74,451.5-74,451.6z"/>
		<path class="st71" d="M-70.7,451l1.7-0.3c0-0.1,0.1-0.2,0.1-0.4l-1.7,0.3C-70.7,450.7-70.7,450.8-70.7,451z"/>
		<path class="st71" d="M-63.7,449.2l-2.6,0.5c-0.1,0.1-0.2,0.3-0.3,0.4l3.1-0.6C-63.5,449.4-63.6,449.3-63.7,449.2z"/>
		<path class="st71" d="M-67.4,450.3l0.3-0.1c0.1-0.1,0.2-0.3,0.2-0.4l-0.5,0.1C-67.3,450.1-67.4,450.2-67.4,450.3z"/>
		<path class="st71" d="M-60.1,448.9l1.5-0.3c-0.1-0.1-0.1-0.2-0.2-0.3l-1.7,0.3C-60.4,448.7-60.2,448.8-60.1,448.9z"/>
		<path class="st72" d="M-56.3,448.5l1.3-0.3c0-0.1,0.1-0.3,0.1-0.4l-1.3,0.3C-56.2,448.2-56.3,448.3-56.3,448.5z"/>
		<path class="st72" d="M-59.8,449.2l1.4-0.3c-0.1-0.1-0.1-0.2-0.2-0.3l-1.5,0.3C-60,449-59.9,449.1-59.8,449.2z"/>
		<path class="st72" d="M-67.6,450.7h0.2c0.1-0.1,0.2-0.3,0.3-0.4l-0.3,0.1C-67.5,450.4-67.5,450.6-67.6,450.7z"/>
		<path class="st72" d="M-70.8,451.3l1.6-0.3c0-0.1,0.1-0.3,0.1-0.4l-1.7,0.3C-70.7,451.1-70.8,451.2-70.8,451.3z"/>
		<path class="st72" d="M-73.9,451.9L-73.9,451.9c0.1-0.1,0.1-0.2,0.1-0.4l-0.2,0.1C-73.9,451.7-73.9,451.8-73.9,451.9z"/>
		<path class="st72" d="M-63.3,449.7l-0.1-0.1l-3.1,0.6c0,0,0,0.1-0.1,0.1c-0.1,0.1-0.2,0.2-0.2,0.3l3.8-0.7
			C-63.1,449.7-63.2,449.7-63.3,449.7z"/>
		<path class="st73" d="M-70.8,451.7l1.6-0.3c0-0.1,0.1-0.2,0.1-0.4l-1.6,0.3C-70.8,451.4-70.8,451.5-70.8,451.7z"/>
		<path class="st73" d="M-63,449.8l-3.8,0.7c-0.1,0.1-0.2,0.3-0.3,0.4l4.6-0.9C-62.7,450-62.9,449.9-63,449.8z"/>
		<path class="st73" d="M-73.8,452.2c0-0.1,0-0.2,0-0.3h-0.1C-73.8,452-73.8,452.1-73.8,452.2z"/>
		<path class="st73" d="M-67.7,451c0,0,0.1-0.1,0.4-0.4h-0.2C-67.6,450.9-67.7,451-67.7,451z"/>
		<path class="st73" d="M-56.4,448.8l1.2-0.2c0-0.1,0.1-0.3,0.1-0.4l-1.3,0.2C-56.3,448.6-56.4,448.7-56.4,448.8z"/>
		<path class="st73" d="M-59.6,449.5l1.3-0.3c-0.1-0.1-0.1-0.2-0.2-0.3l-1.4,0.3C-59.7,449.3-59.6,449.4-59.6,449.5z"/>
		<path class="st74" d="M-56.5,449.2l1.2-0.2c0.1-0.1,0.1-0.2,0.1-0.4l-1.2,0.2C-56.4,449-56.4,449.1-56.5,449.2z"/>
		<path class="st74" d="M-62.5,450l-4.6,0.9c-0.1,0.1-0.2,0.3-0.3,0.4l5.4-1.1C-62.2,450.2-62.4,450.1-62.5,450z"/>
		<path class="st74" d="M-70.8,452l1.5-0.3l0,0c0-0.1,0.1-0.2,0.1-0.4l-1.6,0.3C-70.8,451.8-70.8,451.9-70.8,452z"/>
		<path class="st74" d="M-59.3,449.8l1.2-0.2c0-0.1-0.1-0.2-0.2-0.3l-1.3,0.3C-59.5,449.6-59.4,449.7-59.3,449.8z"/>
		<path class="st75" d="M-70.9,452.4l1.5-0.3c0-0.1,0-0.2,0-0.4l-1.5,0.3C-70.8,452.1-70.9,452.3-70.9,452.4z"/>
		<path class="st75" d="M-59.2,450.1l1.2-0.2c0-0.1-0.1-0.2-0.2-0.3l-1.2,0.2C-59.3,449.9-59.2,450-59.2,450.1z"/>
		<path class="st75" d="M-62,450.3l-5.4,1.1c-0.1,0.1-0.2,0.3-0.2,0.4l6.1-1.2C-61.7,450.4-61.8,450.4-62,450.3z"/>
		<path class="st75" d="M-56.5,449.6l1.1-0.2c0-0.1,0.1-0.2,0.1-0.3V449l-1.2,0.2C-56.5,449.3-56.5,449.4-56.5,449.6z"/>
		<path class="st76" d="M-56.6,449.9l1.1-0.2c0-0.1,0.1-0.2,0.1-0.4l-1.1,0.2C-56.6,449.7-56.6,449.8-56.6,449.9z"/>
		<path class="st76" d="M-59,450.4l1.2-0.2c0-0.1-0.1-0.2-0.1-0.3l-1.2,0.2C-59.1,450.2-59,450.3-59,450.4z"/>
		<path class="st76" d="M-61.5,450.5l-6.1,1.2c-0.1,0.1-0.1,0.3-0.2,0.4l6.7-1.3C-61.2,450.7-61.4,450.6-61.5,450.5z"/>
		<path class="st76" d="M-70.9,452.7l1.4-0.3c0-0.1,0-0.2,0-0.4l-1.5,0.3C-70.9,452.5-70.9,452.6-70.9,452.7z"/>
		<path class="st77" d="M-58.9,450.7l1.2-0.2c0-0.1-0.1-0.2-0.1-0.3l-1.2,0.2C-59,450.5-58.9,450.6-58.9,450.7z"/>
		<path class="st77" d="M-56.7,450.3l1-0.2c0-0.1,0.1-0.2,0.1-0.4l-1.1,0.2C-56.6,450-56.6,450.2-56.7,450.3z"/>
		<path class="st77" d="M-70.8,453.1l1.4-0.3c0-0.1,0-0.2,0-0.4l-1.4,0.3C-70.9,452.8-70.9,453-70.8,453.1z"/>
		<path class="st77" d="M-61.1,450.8l-6.7,1.3c-0.1,0.1-0.1,0.3-0.2,0.4l7.2-1.4C-60.9,451-61,450.9-61.1,450.8z"/>
		<path class="st78" d="M-70.8,453.4l1.3-0.3c0-0.1,0-0.2,0-0.4l-1.4,0.3C-70.8,453.2-70.8,453.3-70.8,453.4z"/>
		<path class="st78" d="M-56.7,450.6l0.9-0.2c0-0.1,0.1-0.2,0.1-0.4l-1,0.2C-56.7,450.4-56.7,450.5-56.7,450.6z"/>
		<path class="st78" d="M-60.8,451.1l-7.2,1.4c-0.1,0.1-0.1,0.3-0.1,0.4l7.6-1.5C-60.6,451.3-60.7,451.2-60.8,451.1z"/>
		<path class="st78" d="M-58.8,451.1l1.2-0.2c0-0.1-0.1-0.2-0.1-0.3l-1.2,0.2C-58.8,450.8-58.8,450.9-58.8,451.1z"/>
		<path class="st79" d="M-56.7,451l0.9-0.2c0-0.1,0.1-0.2,0.1-0.4l-0.9,0.2C-56.7,450.8-56.7,450.9-56.7,451z"/>
		<path class="st79" d="M-70.8,453.8l1.3-0.2c0-0.1,0-0.2,0-0.4l-1.3,0.3C-70.8,453.5-70.8,453.6-70.8,453.8z"/>
		<path class="st79" d="M-60.5,451.4l-7.6,1.5c0,0.1-0.1,0.2-0.1,0.4l7.8-1.5C-60.4,451.6-60.4,451.5-60.5,451.4z"/>
		<path class="st79" d="M-58.7,451.4l1.2-0.2c0-0.1-0.1-0.2-0.1-0.3l-1.2,0.2C-58.7,451.2-58.7,451.3-58.7,451.4z"/>
		<path class="st80" d="M-58.6,451.7l1.2-0.2c0-0.1,0-0.2-0.1-0.3l-1.2,0.2C-58.7,451.5-58.7,451.6-58.6,451.7z"/>
		<path class="st80" d="M-56.8,451.4l0.8-0.2c0-0.1,0.1-0.2,0.1-0.4l-0.9,0.2C-56.8,451.1-56.7,451.2-56.8,451.4z"/>
		<path class="st80" d="M-60.3,451.7l-7.8,1.5c0,0.1,0,0.2-0.1,0.4l8.1-1.6C-60.2,451.9-60.3,451.8-60.3,451.7z"/>
		<path class="st80" d="M-70.7,454.1l1.2-0.2c0-0.1,0-0.2,0-0.4l-1.3,0.2C-70.8,453.9-70.7,454-70.7,454.1z"/>
		<path class="st81" d="M-56.8,451.7l0.7-0.1c0-0.1,0-0.2,0.1-0.4l-0.8,0.2C-56.8,451.5-56.8,451.6-56.8,451.7z"/>
		<path class="st81" d="M-58.6,452.1l1.2-0.2c0-0.1,0-0.2-0.1-0.3l-1.2,0.2C-58.6,451.8-58.6,451.9-58.6,452.1z"/>
		<path class="st81" d="M-60.2,452l-8.1,1.6c0,0.1,0,0.2,0,0.4l8.2-1.6C-60.1,452.2-60.1,452.1-60.2,452z"/>
		<path class="st81" d="M-70.6,454.4l1.1-0.2c0-0.1,0-0.2,0-0.3l-1.2,0.2C-70.7,454.2-70.7,454.3-70.6,454.4z"/>
		<path class="st82" d="M-60.1,452.4l-8.2,1.6c0,0.1,0,0.2,0,0.3l8.2-1.6C-60,452.6-60.1,452.5-60.1,452.4z"/>
		<path class="st82" d="M-58.6,452.4l1.2-0.2c0-0.1,0-0.2-0.1-0.3l-1.2,0.2C-58.6,452.2-58.6,452.3-58.6,452.4z"/>
		<path class="st82" d="M-70.5,454.7l1.1-0.2c0-0.1,0-0.2,0-0.3l-1.1,0.2C-70.6,454.5-70.6,454.6-70.5,454.7z"/>
		<path class="st82" d="M-56.8,452l0.7-0.1c0-0.1,0-0.2,0.1-0.4l-0.7,0.1C-56.8,451.8-56.8,451.9-56.8,452z"/>
		<path class="st83" d="M-58.5,452.7l1.2-0.2c0-0.1,0-0.2,0-0.3l-1.2,0.2C-58.6,452.5-58.6,452.6-58.5,452.7z"/>
		<path class="st83" d="M-60,452.7L-60,452.7l-8.2,1.6c0,0.1,0,0.2,0.1,0.3l8.2-1.6C-60,452.9-60,452.8-60,452.7z"/>
		<path class="st83" d="M-70.4,455.1l1-0.2c0-0.1,0-0.2,0-0.3l-1.1,0.2C-70.5,454.9-70.5,455-70.4,455.1z"/>
		<path class="st83" d="M-56.7,452.4l0.6-0.1c0-0.1,0-0.2,0-0.4l-0.7,0.1C-56.7,452.2-56.7,452.3-56.7,452.4z"/>
		<path class="st84" d="M-56.7,452.7l0.5-0.1c0-0.1,0-0.2,0-0.3l-0.6,0.1C-56.7,452.5-56.7,452.6-56.7,452.7z"/>
		<path class="st84" d="M-70.3,455.4l0.9-0.2c0-0.1-0.1-0.2-0.1-0.3l-1,0.2C-70.4,455.2-70.3,455.3-70.3,455.4z"/>
		<path class="st84" d="M-58.5,453.1l1.2-0.2c0-0.1,0-0.2,0-0.3l-1.2,0.2C-58.5,452.9-58.5,453-58.5,453.1z"/>
		<path class="st84" d="M-62.9,453.9l2.9-0.6c0-0.1,0-0.2,0-0.3l-8.2,1.6c0,0.1,0.1,0.2,0.1,0.3l3.9-0.8
			C-63.8,453.8-63.3,453.7-62.9,453.9z"/>
		<path class="st85" d="M-56.6,453.1l0.5-0.1c0-0.1,0-0.2,0-0.3l-0.5,0.1C-56.6,452.8-56.6,453-56.6,453.1z"/>
		<path class="st85" d="M-64.2,454.2l-3.9,0.8c0,0.1,0.1,0.2,0.2,0.3l3.3-0.7C-64.5,454.5-64.3,454.3-64.2,454.2z"/>
		<path class="st85" d="M-62.6,454.2l2.6-0.5c0-0.1,0-0.2,0-0.3l-2.9,0.6C-62.8,454-62.7,454.1-62.6,454.2z"/>
		<path class="st85" d="M-58.6,453.4l1.3-0.2c0-0.1,0-0.2,0-0.3l-1.2,0.2C-58.6,453.2-58.6,453.3-58.6,453.4z"/>
		<path class="st85" d="M-70.1,455.7l0.9-0.2c0-0.1-0.1-0.2-0.1-0.3l-0.9,0.2C-70.2,455.5-70.1,455.6-70.1,455.7z"/>
		<path class="st86" d="M-64.6,454.6l-3.3,0.7c0.1,0.1,0.1,0.2,0.2,0.3l2.9-0.6C-64.7,454.9-64.7,454.7-64.6,454.6z"/>
		<path class="st86" d="M-58.6,453.8l1.3-0.2c0-0.1,0-0.2,0-0.4l-1.3,0.2C-58.6,453.6-58.6,453.7-58.6,453.8z"/>
		<path class="st86" d="M-56.5,453.4l0.4-0.1c0-0.1,0-0.2-0.1-0.3l-0.5,0.1C-56.5,453.2-56.5,453.3-56.5,453.4z"/>
		<path class="st86" d="M-62.4,454.6l2.4-0.5c0-0.1,0-0.2,0-0.4l-2.6,0.5C-62.5,454.3-62.5,454.4-62.4,454.6z"/>
		<path class="st86" d="M-69.9,456l0.8-0.2c0-0.1-0.1-0.2-0.1-0.3l-0.9,0.2C-70,455.8-70,455.9-69.9,456z"/>
		<path class="st87" d="M-58.6,454.2l1.3-0.3c0-0.1,0-0.2,0-0.4l-1.3,0.2C-58.6,453.9-58.6,454-58.6,454.2z"/>
		<path class="st87" d="M-56.3,453.7l0.4-0.1c0-0.1-0.1-0.2-0.1-0.3l-0.4,0.1C-56.4,453.5-56.3,453.6-56.3,453.7z"/>
		<path class="st87" d="M-62.3,454.9l2.3-0.5c0-0.1,0-0.2,0-0.4l-2.4,0.5C-62.4,454.7-62.4,454.8-62.3,454.9z"/>
		<path class="st87" d="M-69.6,456.3l0.7-0.1c-0.1-0.1-0.1-0.2-0.2-0.3l-0.8,0.2C-69.8,456.1-69.7,456.2-69.6,456.3z"/>
		<path class="st87" d="M-64.8,455l-2.9,0.6c0.1,0.1,0.2,0.2,0.3,0.3l0,0l2.5-0.5C-64.9,455.3-64.9,455.1-64.8,455z"/>
		<path class="st88" d="M-65,455.4l-2.5,0.5c0.1,0.1,0.1,0.2,0.2,0.3l2.2-0.4C-65,455.6-65,455.5-65,455.4z"/>
		<path class="st88" d="M-69.4,456.6l0.6-0.1c-0.1-0.1-0.1-0.2-0.2-0.3l-0.7,0.1C-69.6,456.4-69.5,456.5-69.4,456.6z"/>
		<path class="st88" d="M-58.6,454.5l1.3-0.3c0-0.1,0-0.2,0-0.4l-1.3,0.3C-58.6,454.3-58.6,454.4-58.6,454.5z"/>
		<path class="st88" d="M-56,454l0.3-0.1c-0.1-0.1-0.1-0.2-0.2-0.3l-0.4,0.1C-56.2,453.8-56.1,453.9-56,454z"/>
		<path class="st88" d="M-62.3,455.2l2.2-0.4c0-0.1,0-0.2,0.1-0.4l-2.3,0.5C-62.3,455-62.3,455.1-62.3,455.2z"/>
		<path class="st89" d="M-55.5,454.2L-55.5,454.2c0,0-0.1-0.1-0.2-0.3L-56,454C-55.8,454.1-55.7,454.2-55.5,454.2z"/>
		<path class="st89" d="M-65.1,455.8l-2.2,0.4c0.1,0.1,0.1,0.2,0.2,0.3l1.9-0.4C-65.1,456-65.1,455.9-65.1,455.8z"/>
		<path class="st89" d="M-69.1,456.9l0.5-0.1c-0.1-0.1-0.2-0.2-0.2-0.3l-0.6,0.1C-69.3,456.7-69.2,456.8-69.1,456.9z"/>
		<path class="st89" d="M-58.7,454.9l1.3-0.3c0-0.1,0-0.2,0-0.4l-1.3,0.3C-58.6,454.6-58.7,454.7-58.7,454.9z"/>
		<path class="st89" d="M-62.2,455.6l2.1-0.4c0-0.1,0.1-0.2,0.1-0.4l-2.2,0.4C-62.2,455.3-62.2,455.4-62.2,455.6z"/>
		<path class="st90" d="M-55.3,454.3L-55.3,454.3h-0.2C-55.4,454.3-55.3,454.3-55.3,454.3z"/>
		<path class="st90" d="M-68.7,457.2l0.4-0.1c-0.1-0.1-0.2-0.2-0.3-0.3l-0.5,0.1C-68.9,457-68.8,457.1-68.7,457.2z"/>
		<path class="st90" d="M-65.1,456.1l-1.9,0.4c0,0.1,0.1,0.2,0.1,0.3l1.8-0.4C-65.1,456.4-65.1,456.2-65.1,456.1z"/>
		<path class="st90" d="M-62.2,455.9l2-0.4c0-0.1,0.1-0.2,0.1-0.4l-2.1,0.4C-62.2,455.7-62.2,455.8-62.2,455.9z"/>
		<path class="st90" d="M-58.7,455.2l1.3-0.3c0-0.1,0-0.2,0.1-0.4l-1.3,0.3C-58.7,455-58.7,455.1-58.7,455.2z"/>
		<path class="st91" d="M-65.1,456.5l-1.8,0.4c0,0.1,0.1,0.2,0.1,0.3l1.7-0.3C-65.1,456.7-65.1,456.6-65.1,456.5z"/>
		<path class="st91" d="M-68.3,457.4l0.3-0.1c-0.1-0.1-0.2-0.2-0.3-0.3l-0.4,0.1C-68.5,457.3-68.4,457.4-68.3,457.4z"/>
		<path class="st91" d="M-58.8,455.5C-58.8,455.5-58.8,455.6-58.8,455.5l1.3-0.2c0-0.1,0-0.2,0.1-0.4l-1.3,0.3
			C-58.7,455.3-58.7,455.4-58.8,455.5z"/>
		<path class="st91" d="M-62.2,456.3l1.9-0.4c0-0.1,0.1-0.2,0.1-0.4l-2,0.4C-62.2,456-62.2,456.1-62.2,456.3z"/>
		<path class="st92" d="M-65.1,456.8l-1.7,0.3c0,0.1,0,0.2,0.1,0.3l1.7-0.3C-65.1,457.1-65.1,456.9-65.1,456.8z"/>
		<path class="st92" d="M-58.8,455.9l1.3-0.3c0-0.1,0-0.2,0.1-0.4l-1.3,0.3C-58.8,455.7-58.8,455.8-58.8,455.9z"/>
		<path class="st92" d="M-62.2,456.6l1.8-0.3c0-0.1,0.1-0.2,0.1-0.4l-1.9,0.4C-62.2,456.4-62.2,456.5-62.2,456.6z"/>
		<path class="st92" d="M-67.7,457.7L-67.7,457.7c0-0.1-0.2-0.2-0.3-0.3l-0.3,0.1C-68,457.6-67.9,457.6-67.7,457.7z"/>
		<path class="st93" d="M-62.2,457l1.7-0.3c0-0.1,0.1-0.2,0.1-0.4l-1.8,0.3C-62.2,456.7-62.2,456.8-62.2,457z"/>
		<path class="st93" d="M-65.1,457.2l-1.7,0.3c0,0.1,0,0.2,0,0.3l1.8-0.3C-65,457.4-65.1,457.3-65.1,457.2z"/>
		<path class="st93" d="M-58.9,456.3l1.2-0.2c0-0.1,0.1-0.2,0.1-0.4l-1.3,0.3C-58.8,456.1-58.9,456.2-58.9,456.3z"/>
		<path class="st93" d="M-67.4,457.8c-0.1,0-0.1-0.1-0.2-0.1h-0.1C-67.5,457.7-67.4,457.8-67.4,457.8z"/>
		<path class="st94" d="M-62.2,457c0,0.1,0,0.2,0,0.3l1.6-0.3c0-0.1,0.1-0.2,0.1-0.4L-62.2,457L-62.2,457z"/>
		<path class="st94" d="M-58.9,456.7l1.2-0.2c0-0.1,0.1-0.2,0.1-0.4l-1.2,0.2C-58.9,456.4-58.9,456.5-58.9,456.7z"/>
		<path class="st94" d="M-65,457.5l-1.8,0.3c0,0.1,0,0.2,0,0.3l1.9-0.4C-64.9,457.7-65,457.6-65,457.5z"/>
		<path class="st95" d="M-62.3,457.7l1.5-0.3c0-0.1,0.1-0.2,0.1-0.4l-1.6,0.3C-62.3,457.4-62.3,457.5-62.3,457.7z"/>
		<path class="st95" d="M-64.9,457.8l-1.9,0.4c0,0.1,0,0.2,0,0.3l2-0.4C-64.8,458-64.8,457.9-64.9,457.8z"/>
		<path class="st95" d="M-58.9,457l1.1-0.2c0-0.1,0.1-0.2,0.1-0.4l-1.2,0.2C-58.9,456.8-58.9,456.9-58.9,457z"/>
		<path class="st96" d="M-64.7,458.2L-64.7,458.2l-2.1,0.3c0,0.1,0,0.2,0,0.4l2.2-0.4C-64.6,458.4-64.6,458.3-64.7,458.2z"/>
		<path class="st96" d="M-62.3,458l1.4-0.3c0-0.1,0.1-0.2,0.1-0.4l-1.5,0.3C-62.3,457.8-62.3,457.9-62.3,458z"/>
		<path class="st96" d="M-59,457.4l1.1-0.2c0-0.1,0-0.1,0-0.2s0-0.1,0-0.2L-59,457C-59,457.1-59,457.2-59,457.4z"/>
		<path class="st97" d="M-64.5,458.5l-2.2,0.4c0,0.1,0,0.2,0,0.4l2.5-0.5C-64.4,458.7-64.5,458.6-64.5,458.5z"/>
		<path class="st97" d="M-59,457.7l1-0.2c0-0.1,0.1-0.2,0.1-0.4l-1.1,0.2C-59,457.5-59,457.6-59,457.7z"/>
		<path class="st97" d="M-62.3,458.4l1.4-0.3c0-0.1,0.1-0.2,0.1-0.4l-1.4,0.3C-62.3,458.1-62.3,458.3-62.3,458.4z"/>
		<path class="st98" d="M-59,458.1l0.9-0.2c0-0.1,0-0.2,0.1-0.4l-1,0.2C-59,457.8-59,457.9-59,458.1z"/>
		<path class="st98" d="M-62.3,458.7l1.3-0.3c0-0.1,0.1-0.2,0.1-0.4l-1.4,0.3C-62.3,458.5-62.3,458.6-62.3,458.7z"/>
		<path class="st98" d="M-64.3,458.8l-2.5,0.5c0,0.1,0,0.2-0.1,0.4l2.7-0.5C-64.2,459-64.3,458.9-64.3,458.8z"/>
		<path class="st99" d="M-64.1,459.1l-2.7,0.5c0,0.1,0,0.2-0.1,0.3l0,0l3-0.6C-64,459.3-64.1,459.2-64.1,459.1z"/>
		<path class="st99" d="M-62.3,459.1l1.2-0.2c0-0.1,0-0.2,0.1-0.4l-1.3,0.3C-62.3,458.8-62.3,458.9-62.3,459.1z"/>
		<path class="st99" d="M-59,458.4l0.9-0.2c0-0.1,0-0.2,0.1-0.4l-0.9,0.2C-59,458.2-59,458.3-59,458.4z"/>
		<path class="st100" d="M-64,459.4l-3,0.6c-0.1,0.1-0.1,0.2-0.1,0.4l3.3-0.6C-63.8,459.6-63.9,459.5-64,459.4z"/>
		<path class="st100" d="M-62.3,459.4l1.1-0.2c0-0.1,0-0.2,0.1-0.4l-1.2,0.2C-62.3,459.2-62.3,459.3-62.3,459.4z"/>
		<path class="st100" d="M-59,458.8l0.9-0.2c0-0.1,0-0.2,0-0.4l-0.9,0.2C-59,458.5-59,458.6-59,458.8z"/>
		<path class="st101" d="M-63.8,459.7l-3.3,0.6c0,0.1-0.1,0.3-0.1,0.4l3.6-0.7C-63.6,459.9-63.7,459.8-63.8,459.7z"/>
		<path class="st101" d="M-62.2,459.7l1.1-0.2c0-0.1,0-0.2,0-0.4l-1.1,0.2C-62.3,459.5-62.3,459.6-62.2,459.7z"/>
		<path class="st101" d="M-59,459.1l0.8-0.2c0-0.1,0-0.2,0-0.4l-0.9,0.2C-59,458.9-59,459-59,459.1z"/>
		<path class="st102" d="M-58.9,459.4l0.8-0.2c0-0.1,0-0.2,0-0.3l-0.8,0.2C-59,459.2-59,459.3-58.9,459.4z"/>
		<path class="st102" d="M-63.6,460l-3.6,0.7c0,0.1-0.1,0.3-0.1,0.4l4-0.8C-63.4,460.2-63.5,460.1-63.6,460z"/>
		<path class="st102" d="M-62.2,460.1l1-0.2c0-0.1,0-0.2,0-0.4l-1.1,0.2C-62.2,459.9-62.2,460-62.2,460.1z"/>
		<path class="st103" d="M-58.9,459.8l0.7-0.1c0-0.1,0-0.2,0-0.3l-0.8,0.2C-58.9,459.6-58.9,459.7-58.9,459.8z"/>
		<path class="st103" d="M-63.4,460.3l-4,0.8c0,0.1-0.1,0.2-0.1,0.4l4.2-0.8C-63.2,460.5-63.3,460.4-63.4,460.3z"/>
		<path class="st103" d="M-62.2,460.4l1-0.2c0-0.1,0-0.2,0-0.3l-1,0.2C-62.2,460.2-62.2,460.3-62.2,460.4z"/>
		<path class="st104" d="M-62.1,460.8l0.9-0.2c0-0.1,0-0.2,0-0.3l-1,0.2C-62.2,460.5-62.1,460.6-62.1,460.8z"/>
		<path class="st104" d="M-58.8,460.1l0.7-0.1c0-0.1,0-0.2,0-0.3l-0.7,0.1C-58.9,459.9-58.9,460-58.8,460.1z"/>
		<path class="st104" d="M-63.2,460.6l-4.2,0.8c0,0.1-0.1,0.3-0.1,0.4l4.5-0.9C-63,460.8-63.1,460.7-63.2,460.6z"/>
		<path class="st105" d="M-63,460.9l-4.5,0.9c0,0.1,0,0.2,0,0.4l4.8-0.9C-62.9,461.1-62.9,461-63,460.9z"/>
		<path class="st105" d="M-62,461.1l0.9-0.2c0-0.1,0-0.2,0-0.3l-0.9,0.2C-62.1,460.9-62.1,461-62,461.1z"/>
		<path class="st105" d="M-58.8,460.5l0.7-0.1c0-0.1,0-0.2,0-0.3l-0.7,0.1C-58.8,460.2-58.8,460.3-58.8,460.5z"/>
		<path class="st105" d="M-62.7,472.7c0.3-0.8,0.6-1.7,0.8-2.6c1.2-4,0.3-6.6-1-8.9l-4.8,0.9c-0.5,3.7,2.6,4.8,2.6,4.8
			c-2.8-1.4-2.5-7.1,0.2-4.3c1.9,2,1.4,5.8,0.9,7.8c0,0.1-0.1,0.2-0.1,0.4c-2.3,6.6-1.1,9.9,0.4,11.5l0.6-0.1
			C-65,479.5-64,476.5-62.7,472.7z"/>
		<path class="st105" d="M-58.8,465.9c-1.5-2-2.2-3.6-2.3-5l-0.9,0.2C-61.2,464.8-58.8,465.9-58.8,465.9z"/>
		<path class="st105" d="M-57.2,462.5c0,0-0.6-0.8-0.9-2.2l-0.7,0.1C-58.3,462.3-57.2,462.5-57.2,462.5z"/>
	</g>
	<g>
		<path class="st106" d="M-57,425.5L-57,425.5c0.2,1.2,0.1,3.3-0.5,5.5l0.4,0.1C-56.7,429.3-56.4,427.3-57,425.5z"/>
		<path class="st106" d="M-57.1,431.1l-0.4-0.1c0,0.1,0,0.1,0,0.2l0.4,0.1C-57.2,431.2-57.1,431.2-57.1,431.1z"/>
		<path class="st107" d="M-57.2,431.3l-0.4-0.1c0,0.1,0,0.1,0,0.2l0.4,0.1C-57.2,431.4-57.2,431.3-57.2,431.3z"/>
		<path class="st108" d="M-57.2,431.4l-0.4-0.1c0,0.1,0,0.1,0,0.2l0.4,0.1C-57.2,431.5-57.2,431.5-57.2,431.4z"/>
		<path class="st109" d="M-57.3,431.6l-0.4-0.1c0,0.1,0,0.1,0,0.2l0.5,0.1C-57.3,431.7-57.3,431.6-57.3,431.6z"/>
		<path class="st110" d="M-57.3,431.7l-0.5-0.1c0,0.1,0,0.1-0.1,0.2l0.5,0.1C-57.3,431.9-57.3,431.8-57.3,431.7z"/>
		<path class="st111" d="M-57.3,431.9l-0.5-0.1c0,0.1,0,0.1-0.1,0.2l0.5,0.1C-57.4,432-57.4,432-57.3,431.9z"/>
		<path class="st112" d="M-57.4,432.1l-0.5-0.1c0,0.1,0,0.1-0.1,0.2l0.5,0.1C-57.4,432.2-57.4,432.1-57.4,432.1z"/>
		<path class="st113" d="M-57.4,432.2l-0.5-0.1c0,0.1,0,0.1-0.1,0.2l0.5,0.1C-57.5,432.3-57.4,432.3-57.4,432.2z"/>
		<path class="st114" d="M-57.5,432.4l-0.5-0.2c0,0.1,0,0.1-0.1,0.2l0.5,0.1C-57.5,432.5-57.5,432.4-57.5,432.4z"/>
		<path class="st115" d="M-57.5,432.5l-0.5-0.1c0,0.1,0,0.1-0.1,0.2l0.5,0.1C-57.5,432.6-57.5,432.6-57.5,432.5z"/>
		<path class="st116" d="M-57.6,432.7l-0.5-0.1c0,0.1,0,0.1-0.1,0.2l0.5,0.2C-57.6,432.8-57.6,432.8-57.6,432.7z"/>
		<path class="st117" d="M-57.6,432.9l-0.5-0.2c0,0.1,0,0.1-0.1,0.2l0.5,0.2C-57.6,433-57.6,432.9-57.6,432.9z"/>
		<path class="st118" d="M-57.7,433l-0.5-0.2c0,0.1,0,0.1-0.1,0.2l0.6,0.2C-57.7,433.1-57.7,433.1-57.7,433z"/>
		<path class="st119" d="M-57.7,433.2l-0.6-0.2c0,0.1,0,0.1-0.1,0.2l0.6,0.2C-57.7,433.3-57.7,433.2-57.7,433.2z"/>
		<path class="st120" d="M-57.7,433.3l-0.6-0.2c0,0.1,0,0.1-0.1,0.2l0.6,0.2C-57.8,433.4-57.8,433.4-57.7,433.3z"/>
		<path class="st121" d="M-57.8,433.5l-0.6-0.2c0,0.1,0,0.1-0.1,0.2l0.6,0.2C-57.8,433.6-57.8,433.6-57.8,433.5z"/>
		<path class="st121" d="M-67.2,430.8C-67.2,430.9-67.2,430.9-67.2,430.8L-67.2,430.8C-67.2,430.9-67.2,430.9-67.2,430.8z"/>
		<path class="st122" d="M-57.8,433.7l-0.6-0.2c0,0.1,0,0.1-0.1,0.2l0.7,0.2C-57.9,433.8-57.8,433.7-57.8,433.7z"/>
		<path class="st122" d="M-67.2,430.9L-67.2,430.9c-0.1,0-0.1,0.1-0.1,0.1h0.1C-67.2,431-67.2,431-67.2,430.9z"/>
		<path class="st123" d="M-57.9,433.8l-0.7-0.2c0,0.1-0.1,0.1-0.1,0.1l0.7,0.2C-57.9,433.9-57.9,433.9-57.9,433.8z"/>
		<path class="st123" d="M-67.2,431.1L-67.2,431.1c-0.1,0-0.1,0.1-0.2,0.1h0.1C-67.2,431.2-67.2,431.2-67.2,431.1z"/>
		<path class="st124" d="M-57.9,434l-0.7-0.2c0,0.1-0.1,0.1-0.1,0.1l0.7,0.2C-57.9,434.1-57.9,434-57.9,434z"/>
		<path class="st124" d="M-67.2,431.3L-67.2,431.3c-0.1,0-0.1,0.1-0.1,0.2l0.2,0.1C-67.2,431.4-67.2,431.3-67.2,431.3z"/>
		<path class="st125" d="M-57.9,434.1l-0.7-0.2c0,0.1-0.1,0.1-0.1,0.1l0.8,0.2C-58,434.2-57.9,434.2-57.9,434.1z"/>
		<path class="st125" d="M-67.2,431.4l-0.2-0.1c0,0.1,0,0.1,0,0.2l0.2,0.1C-67.2,431.5-67.2,431.5-67.2,431.4z"/>
		<path class="st126" d="M-58,434.3l-0.8-0.2l-0.1,0.1l0.8,0.2C-58,434.4-58,434.4-58,434.3z"/>
		<path class="st126" d="M-67.3,431.6l-0.2-0.1c0,0.1,0,0.1,0,0.2l0.2,0.1C-67.3,431.7-67.3,431.7-67.3,431.6z"/>
		<path class="st127" d="M-67.3,431.8l-0.2-0.1c0,0.1,0,0.1,0,0.2l0.3,0.1C-67.3,431.9-67.3,431.8-67.3,431.8z"/>
		<path class="st127" d="M-58,434.5l-0.8-0.2l-0.1,0.1l0.9,0.3C-58,434.6-58,434.5-58,434.5z"/>
		<path class="st128" d="M-58,434.6l-0.9-0.3l-0.1,0.1l0.9,0.3C-58.1,434.7-58,434.7-58,434.6z"/>
		<path class="st128" d="M-67.3,431.9l-0.3-0.1c0,0.1,0,0.1,0,0.2l0.3,0.1C-67.3,432.1-67.3,432-67.3,431.9z"/>
		<path class="st129" d="M-58.1,434.8l-0.9-0.3l-0.1,0.1l1,0.3V434.8z"/>
		<path class="st129" d="M-67.3,432.1l-0.3-0.1c0,0.1,0,0.1,0,0.2l0.3,0.1C-67.3,432.2-67.3,432.2-67.3,432.1z"/>
		<path class="st130" d="M-58.1,435l-1-0.3c0,0.1-0.1,0.1-0.1,0.1l1.1,0.3V435z"/>
		<path class="st130" d="M-67.2,432.3l-0.3-0.1c0,0.1,0,0.1,0,0.2l0.3,0.1C-67.2,432.4-67.2,432.3-67.2,432.3z"/>
		<path class="st131" d="M-67.2,432.5l-0.3-0.1c0,0.1,0,0.1,0,0.2l0.3,0.1C-67.2,432.6-67.2,432.5-67.2,432.5z"/>
		<path class="st131" d="M-58.1,435.1l-1.1-0.3l-0.1,0.1l1.2,0.3C-58.1,435.2-58.1,435.2-58.1,435.1z"/>
		<path class="st132" d="M-67.2,432.6l-0.3-0.1c0,0.1,0,0.1,0,0.2l0.3,0.1C-67.2,432.8-67.2,432.7-67.2,432.6z"/>
		<path class="st132" d="M-58.1,435.3l-1.2-0.3l-0.1,0.1l1.3,0.4C-58.1,435.4-58.1,435.4-58.1,435.3z"/>
		<path class="st133" d="M-58.1,435.5l-1.3-0.4l-0.1,0.1l1.4,0.4V435.5z"/>
		<path class="st133" d="M-67.2,432.8l-0.3-0.1c0,0.1,0,0.1,0,0.2l0.3,0.1C-67.2,432.9-67.2,432.9-67.2,432.8z"/>
		<path class="st134" d="M-58.1,435.6l-1.4-0.4l-0.1,0.1l1.5,0.4C-58.1,435.8-58.1,435.7-58.1,435.6z"/>
		<path class="st134" d="M-67.2,433l-0.3-0.1c0,0.1,0,0.1,0,0.2l0.3,0.1C-67.2,433.1-67.2,433.1-67.2,433z"/>
		<path class="st135" d="M-67.2,433.2l-0.3-0.1c0,0.1,0,0.1,0,0.2l0.3,0.1C-67.2,433.3-67.2,433.2-67.2,433.2z"/>
		<path class="st135" d="M-58.1,435.8l-1.5-0.4l-0.1,0.1l1.6,0.5C-58,435.9-58.1,435.9-58.1,435.8z"/>
		<path class="st136" d="M-58,436l-1.6-0.5l-0.1,0.1l1.8,0.5C-58,436.1-58,436.1-58,436z"/>
		<path class="st136" d="M-67.2,433.3l-0.3-0.1c0,0.1,0,0.1,0,0.2l0.4,0.1C-67.1,433.5-67.2,433.4-67.2,433.3z"/>
		<path class="st137" d="M-67.1,433.5l-0.4-0.1c0,0.1,0,0.1,0,0.2l0.4,0.1C-67.1,433.6-67.1,433.6-67.1,433.5z"/>
		<path class="st137" d="M-57.9,436.3C-57.9,436.3-57.9,436.2-57.9,436.3l-1.9-0.6l-0.1,0.1l2.1,0.6L-57.9,436.3z"/>
		<path class="st138" d="M-67.1,433.7l-0.4-0.1c0,0.1,0,0.1,0,0.2l0.4,0.1C-67.1,433.8-67.1,433.8-67.1,433.7z"/>
		<path class="st138" d="M-57.8,436.4l-2.1-0.6l-0.1,0.1l2.3,0.7C-57.7,436.6-57.8,436.5-57.8,436.4z"/>
		<path class="st139" d="M-67.1,433.9l-0.4-0.1c0,0.1,0,0.1,0,0.2l0.4,0.1C-67.1,434-67.1,434-67.1,433.9z"/>
		<path class="st139" d="M-57.6,436.6l-2.3-0.7L-60,436l2.6,0.8C-57.5,436.8-57.6,436.7-57.6,436.6z"/>
		<path class="st140" d="M-57.5,436.9l-2.6-0.8l-0.1,0.1l3,0.9C-57.3,437-57.4,436.9-57.5,436.9z"/>
		<path class="st140" d="M-67,434.1l-0.4-0.1c0,0.1,0,0.1,0,0.2l0.4,0.1C-67,434.2-67,434.1-67,434.1z"/>
		<path class="st141" d="M-57.2,437.1l-3-0.9l-0.1,0.1l3.5,1C-57,437.3-57.1,437.2-57.2,437.1z"/>
		<path class="st141" d="M-67,434.3l-0.4-0.1c0,0.1,0,0.1,0,0.2l0.4,0.1C-67,434.4-67,434.3-67,434.3z"/>
		<path class="st142" d="M-67,434.4l-0.4-0.1c0,0.1,0,0.1,0,0.2l0.5,0.1C-66.9,434.6-66.9,434.5-67,434.4z"/>
		<path class="st142" d="M-56.9,437.4l-3.5-1l-0.1,0.1l4,1.2C-56.6,437.6-56.8,437.5-56.9,437.4z"/>
		<path class="st143" d="M-66.9,434.6l-0.5-0.1c0,0.1,0,0.1,0,0.2l0.5,0.1C-66.9,434.8-66.9,434.7-66.9,434.6z"/>
		<path class="st143" d="M-56.5,437.7l-4-1.2l-0.1,0.1l4.6,1.3C-56.2,437.9-56.3,437.8-56.5,437.7z"/>
		<path class="st144" d="M-56,438l-4.6-1.3l-0.1,0.1l5.2,1.5C-55.7,438.2-55.9,438.1-56,438z"/>
		<path class="st144" d="M-66.9,434.8l-0.5-0.1l0,0c0,0.1,0,0.1,0,0.2l0.5,0.2C-66.8,434.9-66.8,434.9-66.9,434.8z"/>
		<path class="st145" d="M-66.8,435l-0.5-0.2c0,0.1,0,0.1,0,0.2l0.6,0.2C-66.7,435.1-66.8,435.1-66.8,435z"/>
		<path class="st145" d="M-55.6,438.3l-5.2-1.5c-0.1,0-0.1,0.1-0.2,0.1l5.6,1.6C-55.4,438.4-55.5,438.3-55.6,438.3z"/>
		<path class="st146" d="M-55.7,438.6l0.6,0.2c-0.1-0.1-0.1-0.2-0.2-0.2l-5.6-1.6c-0.1,0-0.1,0.1-0.2,0.1l4.1,1.1
			C-56.5,438.2-56.1,438.3-55.7,438.6z"/>
		<path class="st146" d="M-66.7,435.2l-0.6-0.2c0,0.1,0,0.1,0,0.2l0.6,0.2C-66.7,435.3-66.7,435.3-66.7,435.2z"/>
		<path class="st147" d="M-66.7,435.4l-0.6-0.2c0,0.1,0,0.1,0,0.2l0.7,0.2C-66.6,435.5-66.6,435.5-66.7,435.4z"/>
		<path class="st147" d="M-55.3,438.9l0.4,0.1c0-0.1-0.1-0.1-0.1-0.2l-0.6-0.2C-55.6,438.7-55.4,438.8-55.3,438.9z"/>
		<path class="st147" d="M-57,438.2l-4.1-1.2c-0.1,0-0.1,0.1-0.2,0.1l4,1.2C-57.2,438.2-57.1,438.2-57,438.2z"/>
		<path class="st148" d="M-66.6,435.6l-0.7-0.2c0,0.1,0,0.1,0,0.2l0.8,0.2C-66.5,435.7-66.5,435.7-66.6,435.6z"/>
		<path class="st148" d="M-57.3,438.3l-4-1.2c-0.1,0-0.1,0.1-0.2,0.1l3.9,1.1C-57.5,438.3-57.4,438.3-57.3,438.3z"/>
		<path class="st148" d="M-55.1,439.1l0.2,0.1c0-0.1-0.1-0.1-0.1-0.2l-0.4-0.1C-55.2,438.9-55.2,439-55.1,439.1z"/>
		<path class="st149" d="M-76.1,433.1L-76.1,433.1L-76.1,433.1L-76.1,433.1z"/>
		<path class="st149" d="M-54.9,439.3L-54.9,439.3c0.1-0.1,0.1-0.1,0.1-0.2L-55,439C-55,439.2-55,439.2-54.9,439.3z"/>
		<path class="st149" d="M-57.6,438.4l-3.9-1.1c-0.1,0-0.1,0.1-0.2,0.1l3.9,1.1C-57.7,438.4-57.6,438.4-57.6,438.4z"/>
		<path class="st149" d="M-66.5,435.8l-0.8-0.2c0,0.1,0,0.1,0,0.2l0.9,0.3C-66.4,435.9-66.4,435.9-66.5,435.8z"/>
		<path class="st150" d="M-57.7,438.5l-3.9-1.1c-0.1,0-0.2,0.1-0.2,0.1l4,1.2C-57.8,438.6-57.8,438.5-57.7,438.5z"/>
		<path class="st150" d="M-66.4,436l-0.9-0.3c0,0.1,0,0.1,0,0.2l1,0.3C-66.3,436.1-66.3,436.1-66.4,436z"/>
		<path class="st150" d="M-54.8,439.5L-54.8,439.5c0-0.1,0-0.1,0-0.2h-0.1C-54.9,439.4-54.9,439.4-54.8,439.5z"/>
		<path class="st150" d="M-76.1,433.2L-76.1,433.2c0,0.1,0,0.1,0,0.2h0.1C-76,433.3-76.1,433.2-76.1,433.2z"/>
		<path class="st151" d="M-57.9,438.6l-4-1.2c-0.1,0-0.2,0.1-0.2,0.1l4.1,1.2C-57.9,438.7-57.9,438.7-57.9,438.6z"/>
		<path class="st151" d="M-54.8,439.7c0-0.1,0-0.1,0-0.2l0,0C-54.8,439.6-54.8,439.6-54.8,439.7z"/>
		<path class="st151" d="M-76,433.4L-76,433.4c-0.1,0,0,0.1,0,0.2h0.1C-76,433.5-76,433.4-76,433.4z"/>
		<path class="st151" d="M-66.3,436.2l-1-0.3c0,0.1,0,0.1,0,0.2l1.1,0.3C-66.2,436.3-66.2,436.3-66.3,436.2z"/>
		<path class="st152" d="M-66.1,436.4l-1.1-0.3c0,0.1,0,0.1,0,0.2l1.2,0.4C-66,436.6-66.1,436.5-66.1,436.4z"/>
		<path class="st152" d="M-76,433.5L-76,433.5c-0.1,0.1-0.1,0.1-0.1,0.2h0.2C-75.9,433.7-75.9,433.6-76,433.5z"/>
		<path class="st152" d="M-58,438.8l-4.1-1.2c-0.1,0-0.2,0.1-0.2,0.1l4.3,1.3C-58,438.9-58,438.8-58,438.8z"/>
		<path class="st153" d="M-58.1,438.9l-4.3-1.3c-0.1,0-0.2,0-0.4,0.1l4.6,1.3C-58.1,439-58.1,439-58.1,438.9z"/>
		<path class="st153" d="M-75.9,433.7h-0.2c0,0.1,0,0.1,0,0.2l0.2,0.1C-75.8,433.9-75.9,433.8-75.9,433.7z"/>
		<path class="st153" d="M-66,436.6l-1.2-0.4c0,0.1,0,0.1,0,0.2l1.4,0.4C-65.8,436.8-65.9,436.7-66,436.6z"/>
		<path class="st154" d="M-58.1,439.1l-4.6-1.3c-0.1,0-0.2,0.1-0.4,0.1l4.9,1.4C-58.2,439.2-58.2,439.1-58.1,439.1z"/>
		<path class="st154" d="M-75.8,433.9H-76c0,0.1,0,0.1,0,0.2l0.3,0.1C-75.7,434.1-75.8,434-75.8,433.9z"/>
		<path class="st154" d="M-65.8,436.9l-1.4-0.4c0,0.1,0,0.1,0,0.2l1.7,0.5C-65.6,437-65.7,436.9-65.8,436.9z"/>
		<path class="st155" d="M-58.2,439.2l-4.9-1.4h-0.1c-0.1,0-0.3,0-0.4,0l5.4,1.6C-58.2,439.3-58.2,439.3-58.2,439.2z"/>
		<path class="st155" d="M-65.5,437.1l-1.7-0.5c0,0.1,0,0.1,0,0.2l2,0.6C-65.3,437.3-65.4,437.2-65.5,437.1z"/>
		<path class="st155" d="M-75.7,434.1L-76,434c0,0.1,0,0.1,0,0.2l0.3,0.1C-75.7,434.3-75.7,434.2-75.7,434.1z"/>
		<path class="st156" d="M-75.6,434.3l-0.4-0.1c0,0.1,0,0.1,0.1,0.2l0.4,0.1C-75.6,434.5-75.6,434.4-75.6,434.3z"/>
		<path class="st156" d="M-58.3,439.4L-58.3,439.4l-5.4-1.6c-0.6,0-1.1-0.2-1.5-0.4l-2-0.6c0,0.1,0,0.1,0,0.2l8.9,2.6
			C-58.3,439.5-58.3,439.5-58.3,439.4z"/>
		<path class="st157" d="M-75.5,434.5l-0.4-0.1c0,0.1,0,0.1,0.1,0.2l0.4,0.1C-75.5,434.7-75.5,434.6-75.5,434.5z"/>
		<path class="st157" d="M-58.3,439.5l-8.9-2.6c0,0.1,0,0.1,0,0.2l8.8,2.6C-58.3,439.6-58.3,439.6-58.3,439.5z"/>
		<path class="st158" d="M-58.3,439.7l-8.8-2.6c0,0.1,0,0.1,0,0.2l8.8,2.6C-58.4,439.8-58.3,439.8-58.3,439.7z"/>
		<path class="st158" d="M-75.4,434.7l-0.4-0.1c0,0.1,0,0.1,0.1,0.2l0.5,0.1C-75.4,434.9-75.4,434.8-75.4,434.7z"/>
		<path class="st0" d="M-75.3,434.9l-0.5-0.1c0,0.1,0,0.1,0.1,0.2l0.6,0.2C-75.2,435.1-75.3,435-75.3,434.9z"/>
		<path class="st0" d="M-58.4,439.9l-8.8-2.6c0,0.1,0,0.1,0,0.2l8.8,2.6C-58.4,440-58.4,439.9-58.4,439.9z"/>
		<path class="st1" d="M-58.4,440l-8.8-2.6c0,0.1,0,0.1,0,0.2l8.8,2.6C-58.4,440.1-58.4,440.1-58.4,440z"/>
		<path class="st1" d="M-75.2,435.1l-0.6-0.2c0,0.1,0,0.1,0.1,0.2l0.6,0.2C-75.1,435.3-75.2,435.2-75.2,435.1z"/>
		<path class="st2" d="M-75.1,435.3l-0.6-0.1c0,0.1,0.1,0.1,0.1,0.2l0.7,0.2C-75,435.5-75,435.4-75.1,435.3z"/>
		<path class="st2" d="M-58.4,440.2l-8.8-2.6c0,0.1,0,0.1,0,0.2l8.8,2.6C-58.4,440.3-58.4,440.3-58.4,440.2z"/>
		<path class="st3" d="M-75,435.6l-0.7-0.2c0,0.1,0.1,0.1,0.1,0.2l0.7,0.2C-74.8,435.7-74.9,435.6-75,435.6z"/>
		<path class="st3" d="M-58.4,440.4l-8.8-2.6c0,0.1,0,0.1,0,0.2l8.9,2.6C-58.4,440.5-58.4,440.4-58.4,440.4z"/>
		<path class="st4" d="M-58.4,440.5l-8.9-2.6c0,0.1,0,0.1,0,0.2l9,2.6C-58.4,440.7-58.4,440.6-58.4,440.5z"/>
		<path class="st4" d="M-74.8,435.8l-0.7-0.2c0,0.1,0.1,0.1,0.1,0.2l0.8,0.2C-74.7,435.9-74.7,435.8-74.8,435.8z"/>
		<path class="st5" d="M-58.4,440.7l-9-2.6c0,0.1,0,0.1,0,0.2l9,2.6C-58.3,440.8-58.3,440.8-58.4,440.7z"/>
		<path class="st5" d="M-74.6,436l-0.8-0.2c0,0.1,0.1,0.1,0.1,0.2l0.9,0.3C-74.5,436.1-74.6,436.1-74.6,436z"/>
		<path class="st6" d="M-58.3,440.9l-9-2.6c0,0.1-0.1,0.1-0.1,0.2l9.2,2.7C-58.3,441-58.3,441-58.3,440.9z"/>
		<path class="st6" d="M-74.5,436.2l-0.9-0.3c0,0.1,0.1,0.1,0.1,0.2l0.9,0.3C-74.4,436.4-74.4,436.3-74.5,436.2z"/>
		<path class="st7" d="M-58.3,441.1l-9.2-2.7c0,0.1,0,0.1-0.1,0.2l9.3,2.7C-58.2,441.2-58.2,441.2-58.3,441.1z"/>
		<path class="st7" d="M-74.3,436.4l-0.9-0.2c0,0.1,0.1,0.1,0.1,0.2l1,0.3C-74.2,436.6-74.2,436.5-74.3,436.4z"/>
		<path class="st8" d="M-74.1,436.7l-1-0.3c0,0.1,0.1,0.1,0.1,0.2l1.1,0.3C-74,436.8-74,436.7-74.1,436.7z"/>
		<path class="st8" d="M-58.2,441.3l-9.3-2.7c0,0,0,0.1-0.1,0.2l9.5,2.8C-58.1,441.4-58.1,441.4-58.2,441.3z"/>
		<path class="st9" d="M-58.1,441.5l-9.5-2.8c0,0.1-0.1,0.1-0.1,0.1l9.8,2.8C-58,441.6-58,441.6-58.1,441.5z"/>
		<path class="st9" d="M-73.9,436.9l-1.1-0.3c0,0.1,0.1,0.1,0.1,0.2l1.2,0.3C-73.7,437.1-73.8,437-73.9,436.9z"/>
		<path class="st11" d="M-73.6,437.1l-1.2-0.3c0.1,0.1,0.1,0.1,0.2,0.2l1.3,0.4C-73.5,437.3-73.6,437.2-73.6,437.1z"/>
		<path class="st11" d="M-57.9,441.7l-9.8-2.8l-0.1,0.1l10.1,2.9C-57.8,441.9-57.9,441.8-57.9,441.7z"/>
		<path class="st159" d="M-73.4,437.4l-1.3-0.4c0.1,0.1,0.1,0.1,0.2,0.2l1.4,0.4C-73.2,437.6-73.3,437.5-73.4,437.4z"/>
		<path class="st159" d="M-57.7,441.9l-10.1-2.9l-0.1,0.1l10.5,3C-57.6,442.1-57.6,442-57.7,441.9z"/>
		<path class="st13" d="M-73.1,437.6l-1.4-0.4c0.1,0.1,0.1,0.2,0.2,0.2l1.6,0.5C-72.9,437.8-73,437.7-73.1,437.6z"/>
		<path class="st13" d="M-57.5,442.2l-10.5-3c-0.1,0-0.1,0.1-0.2,0.1l11,3.2C-57.3,442.4-57.4,442.3-57.5,442.2z"/>
		<path class="st14" d="M-57.2,442.4l-11-3.2c-0.1,0-0.1,0.1-0.2,0.1l11.6,3.4C-56.9,442.6-57.1,442.5-57.2,442.4z"/>
		<path class="st14" d="M-72.7,437.9l-1.6-0.5c0.1,0.1,0.1,0.2,0.2,0.2l1.8,0.5C-72.5,438.1-72.6,438-72.7,437.9z"/>
		<path class="st15" d="M-72.3,438.2l-1.8-0.5c0.1,0.1,0.1,0.2,0.2,0.2l2.1,0.6C-72,438.4-72.2,438.3-72.3,438.2z"/>
		<path class="st15" d="M-56.8,442.7l-11.6-3.4h-0.1c-0.1,0-0.2,0-0.2,0l6.9,2h0.1l5.3,1.5C-56.6,442.9-56.7,442.8-56.8,442.7z"/>
		<path class="st16" d="M-69.5,439.4l7.3,2.1c0.1-0.1,0.2-0.1,0.3-0.1l-6.9-2C-69,439.4-69.2,439.4-69.5,439.4z"/>
		<path class="st16" d="M-71.8,438.5l-2.1-0.6c0.1,0.1,0.1,0.2,0.2,0.2l2.7,0.8C-71.3,438.8-71.5,438.7-71.8,438.5z"/>
		<path class="st16" d="M-56.5,443l-5.3-1.5c0.1,0,0.1,0.1,0.2,0.2l5.4,1.6C-56.3,443.1-56.4,443.1-56.5,443z"/>
		<path class="st17" d="M-56.3,443.2l-5.4-1.6c0,0.1,0,0.1,0.1,0.2l5.4,1.6C-56.1,443.4-56.2,443.3-56.3,443.2z"/>
		<path class="st17" d="M-71,438.9l-2.7-0.8c0.1,0.1,0.2,0.2,0.2,0.2l11.1,3.2c0.1,0,0.1-0.1,0.2-0.1l-7.3-2.1
			C-69.9,439.3-70.4,439.2-71,438.9z"/>
		<path class="st18" d="M-73.3,438.6l9.1,2.6c0.1,0,0.2,0,0.2,0.1l1.4,0.4c0.1,0,0.1-0.1,0.2-0.1l-11.1-3.2
			C-73.4,438.5-73.3,438.5-73.3,438.6z"/>
		<path class="st18" d="M-56.1,443.4l-5.4-1.6c0,0.1,0,0.1,0,0.2l3.5,1c0.7,0,1.4,0.2,1.8,0.5h0.2
			C-56.1,443.6-56.1,443.5-56.1,443.4z"/>
		<path class="st19" d="M-56,443.7L-56,443.7l-0.2-0.1C-56.2,443.6-56.1,443.7-56,443.7L-56,443.7z"/>
		<path class="st19" d="M-61.5,442.2l3.1,0.9c0.1,0,0.3-0.1,0.4-0.1l-3.5-1C-61.5,442.1-61.5,442.2-61.5,442.2z"/>
		<path class="st19" d="M-63.8,441.6l1.1,0.3l0.1-0.1l-1.4-0.4C-63.9,441.4-63.8,441.5-63.8,441.6z"/>
		<path class="st19" d="M-73,438.9l8.5,2.5c0.1-0.1,0.2-0.1,0.3-0.1l-9.1-2.6C-73.2,438.7-73.1,438.8-73,438.9z"/>
		<path class="st20" d="M-61.5,442.4l2.8,0.8c0.1,0,0.2-0.1,0.3-0.1l-3.1-0.9C-61.5,442.3-61.5,442.3-61.5,442.4z"/>
		<path class="st20" d="M-72.8,439.1l8.1,2.4c0.1,0,0.1-0.1,0.2-0.1l-8.5-2.5C-72.9,438.9-72.9,439-72.8,439.1z"/>
		<path class="st20" d="M-63.7,441.7l0.9,0.3l0.1-0.1l-1.1-0.3C-63.8,441.6-63.7,441.7-63.7,441.7z"/>
		<path class="st160" d="M-61.5,442.6l2.6,0.8c0.1,0,0.1-0.1,0.2-0.1l-2.8-0.8C-61.5,442.5-61.5,442.5-61.5,442.6z"/>
		<path class="st160" d="M-72.5,439.3l7.7,2.2c0.1,0,0.1-0.1,0.2-0.1l-8.1-2.4C-72.7,439.2-72.6,439.3-72.5,439.3z"/>
		<path class="st160" d="M-63.7,441.9l0.8,0.2l0.1-0.1l-0.9-0.3C-63.7,441.8-63.7,441.9-63.7,441.9z"/>
		<path class="st22" d="M-72.3,439.6l7.3,2.1c0.1,0,0.1-0.1,0.2-0.1l-7.7-2.2C-72.5,439.4-72.4,439.5-72.3,439.6z"/>
		<path class="st22" d="M-63.7,442.1l0.7,0.2l0.1-0.1l-0.8-0.2C-63.7,442-63.7,442-63.7,442.1z"/>
		<path class="st22" d="M-61.5,442.7L-61.5,442.7l2.4,0.8c0.1,0,0.1-0.1,0.2-0.1L-61.5,442.7C-61.5,442.6-61.5,442.6-61.5,442.7z"/>
		<path class="st23" d="M-61.5,442.9l2.2,0.6l0.1-0.1l-2.4-0.7C-61.5,442.8-61.5,442.9-61.5,442.9z"/>
		<path class="st23" d="M-72.1,439.8l6.9,2c0.1,0,0.1-0.1,0.2-0.1l-7.3-2.1C-72.3,439.7-72.2,439.7-72.1,439.8z"/>
		<path class="st23" d="M-63.7,442.3l0.6,0.2l0.1-0.1L-63.7,442.3C-63.7,442.1-63.7,442.2-63.7,442.3z"/>
		<path class="st24" d="M-63.7,442.4l0.5,0.1l0.1-0.1l-0.6-0.2C-63.7,442.3-63.7,442.4-63.7,442.4z"/>
		<path class="st24" d="M-71.9,440l6.6,1.9c0.1,0,0.1-0.1,0.2-0.1l-6.9-2C-72.1,439.9-72,440-71.9,440z"/>
		<path class="st24" d="M-61.4,443.1l2.1,0.6l0.1-0.1l-2.2-0.6C-61.5,443-61.4,443-61.4,443.1z"/>
		<path class="st25" d="M-63.7,442.6l0.4,0.1l0.1-0.1l-0.5-0.1C-63.7,442.5-63.7,442.5-63.7,442.6z"/>
		<path class="st25" d="M-61.4,443.3l2,0.6l0.1-0.1L-61.4,443.3C-61.4,443.2-61.4,443.2-61.4,443.3z"/>
		<path class="st25" d="M-71.8,440.3l6.3,1.8c0.1,0,0.1-0.1,0.2-0.1l-6.6-1.9C-71.9,440.1-71.8,440.2-71.8,440.3z"/>
		<path class="st26" d="M-71.6,440.5l6,1.7c0.1,0,0.1-0.1,0.1-0.1l-6.3-1.8C-71.7,440.3-71.7,440.4-71.6,440.5z"/>
		<path class="st26" d="M-63.7,442.8l0.3,0.1l0.1-0.1H-63.7C-63.7,442.7-63.7,442.7-63.7,442.8z"/>
		<path class="st26" d="M-61.4,443.4l1.8,0.5c0-0.1,0.1-0.1,0.1-0.1l-2-0.6C-61.4,443.3-61.4,443.4-61.4,443.4z"/>
		<path class="st27" d="M-63.8,442.9l0.2,0.1l0.1-0.1l-0.3-0.1C-63.7,442.8-63.7,442.9-63.8,442.9z"/>
		<path class="st27" d="M-71.5,440.7l5.7,1.7l0.1-0.1l-6-1.7C-71.6,440.5-71.6,440.6-71.5,440.7z"/>
		<path class="st27" d="M-61.4,443.6l1.8,0.5l0.1-0.1l-1.8-0.5C-61.4,443.5-61.4,443.6-61.4,443.6z"/>
		<path class="st28" d="M-71.4,440.9l5.4,1.6l0.1-0.1l-5.7-1.7C-71.5,440.7-71.4,440.8-71.4,440.9z"/>
		<path class="st28" d="M-61.4,443.8l1.6,0.5c0-0.1,0-0.1,0.1-0.2l-1.8-0.5C-61.4,443.7-61.4,443.7-61.4,443.8z"/>
		<path class="st28" d="M-63.8,443.1h0.2l0.1-0.1l-0.2-0.1C-63.8,443-63.8,443-63.8,443.1z"/>
		<path class="st161" d="M-61.3,444l1.5,0.4c0-0.1,0.1-0.1,0.1-0.1l-1.6-0.5C-61.4,443.9-61.4,443.9-61.3,444z"/>
		<path class="st161" d="M-63.8,443.3L-63.8,443.3l0.2-0.1L-63.8,443.3C-63.8,443.2-63.8,443.2-63.8,443.3z"/>
		<path class="st161" d="M-71.3,441.1l5.2,1.5l0.1-0.1l-5.4-1.6C-71.4,440.9-71.3,441-71.3,441.1z"/>
		<path class="st31" d="M-61.3,444.2l1.4,0.4c0-0.1,0-0.1,0.1-0.2l-1.5-0.4C-61.3,444-61.3,444.1-61.3,444.2z"/>
		<path class="st31" d="M-71.3,441.3l5,1.5l0.1-0.1L-71.3,441.3C-71.3,441.1-71.3,441.2-71.3,441.3z"/>
		<path class="st31" d="M-63.8,443.4L-63.8,443.4c0.1,0,0.1-0.1,0.1-0.1h-0.1V443.4z"/>
		<path class="st32" d="M-71.2,441.5l4.8,1.4l0.1-0.1l-5-1.5C-71.3,441.3-71.2,441.4-71.2,441.5z"/>
		<path class="st32" d="M-63.9,443.6L-63.9,443.6l0.1-0.1h-0.1C-63.8,443.5-63.9,443.5-63.9,443.6z"/>
		<path class="st32" d="M-61.3,444.3l1.4,0.4c0-0.1,0-0.1,0.1-0.2l-1.4-0.4C-61.3,444.2-61.3,444.3-61.3,444.3z"/>
		<path class="st33" d="M-71.2,441.6l4.6,1.3l0.1-0.1l-4.8-1.4C-71.2,441.5-71.2,441.6-71.2,441.6z"/>
		<path class="st33" d="M-63.9,443.6L-63.9,443.6L-63.9,443.6z"/>
		<path class="st33" d="M-61.2,444.5l1.3,0.4c0-0.1,0-0.1,0.1-0.2l-1.4-0.4C-61.3,444.4-61.2,444.5-61.2,444.5z"/>
		<path class="st34" d="M-71.2,441.8l4.5,1.3l0.1-0.1L-71.2,441.8L-71.2,441.8z"/>
		<path class="st34" d="M-61.2,444.7l1.2,0.3c0-0.1,0-0.1,0-0.2l-1.3-0.4C-61.2,444.6-61.2,444.7-61.2,444.7z"/>
		<path class="st162" d="M-61.1,444.9l1.1,0.3c0-0.1,0-0.1,0-0.2l-1.2-0.3C-61.2,444.8-61.1,444.8-61.1,444.9z"/>
		<path class="st162" d="M-71.2,442l4.3,1.3l0.1-0.1l-4.5-1.3C-71.2,441.9-71.2,441.9-71.2,442z"/>
		<path class="st36" d="M-61.1,445.1l1,0.3c0-0.1,0-0.1,0-0.2l-1.1-0.3C-61.1,445-61.1,445-61.1,445.1z"/>
		<path class="st36" d="M-71.2,442.2l4.2,1.2l0.1-0.1l-4.3-1.3C-71.2,442-71.2,442.1-71.2,442.2z"/>
		<path class="st37" d="M-71.2,442.3l4.1,1.2l0.1-0.1L-71.2,442.3L-71.2,442.3z"/>
		<path class="st37" d="M-61,445.3l0.9,0.3c0-0.1,0-0.1,0-0.2l-1-0.3C-61,445.2-61,445.2-61,445.3z"/>
		<path class="st38" d="M-71.2,442.5l4,1.1l0.1-0.1l-4.1-1.2C-71.2,442.4-71.2,442.4-71.2,442.5z"/>
		<path class="st38" d="M-60.9,445.5l0.7,0.2c0-0.1,0-0.1,0-0.2l-0.9-0.3C-60.9,445.4-60.9,445.4-60.9,445.5z"/>
		<path class="st39" d="M-71.3,442.6l3.8,1.1l0.1-0.1l-4-1.1C-71.2,442.5-71.2,442.6-71.3,442.6z"/>
		<path class="st39" d="M-60.8,445.7l0.6,0.2c0-0.1,0-0.1,0-0.2l-0.7-0.2C-60.9,445.6-60.8,445.6-60.8,445.7z"/>
		<path class="st40" d="M-60.7,445.9l0.5,0.1c0-0.1,0-0.1,0-0.2l-0.6-0.2C-60.8,445.8-60.7,445.8-60.7,445.9z"/>
		<path class="st40" d="M-71.3,442.8l3.7,1.1c0,0,0.1-0.1,0.2-0.1L-71.3,442.8C-71.3,442.7-71.3,442.8-71.3,442.8z"/>
		<path class="st163" d="M-60.6,446.1l0.4,0.1c0-0.1,0-0.1,0-0.2l-0.5-0.1C-60.6,446-60.6,446-60.6,446.1z"/>
		<path class="st163" d="M-71.3,443l3.6,1.1c0.1,0,0.1-0.1,0.2-0.1l-3.7-1.1C-71.3,442.9-71.3,442.9-71.3,443z"/>
		<path class="st42" d="M-60.4,446.3l0.2,0.1c0-0.1,0-0.1,0-0.2l-0.4-0.1C-60.5,446.2-60.5,446.3-60.4,446.3z"/>
		<path class="st42" d="M-71.4,443.1l0.8,0.2c0.2-0.1,0.3,0,0.5,0.1l2.2,0.6c0.1,0,0.1-0.1,0.2-0.1l-3.6-1.1
			C-71.3,443-71.4,443.1-71.4,443.1z"/>
		<path class="st43" d="M-71.5,443.3l0.7,0.2c0.1,0,0.1-0.1,0.2-0.1L-71.5,443.3C-71.4,443.2-71.4,443.2-71.5,443.3z"/>
		<path class="st43" d="M-60.2,446.5L-60.2,446.5c0-0.1,0-0.1,0-0.2l-0.2-0.1C-60.3,446.5-60.2,446.5-60.2,446.5z"/>
		<path class="st43" d="M-69.9,443.7l1.9,0.6c0.1,0,0.1-0.1,0.2-0.1l-2.2-0.6C-70,443.6-70,443.6-69.9,443.7z"/>
		<path class="st164" d="M-69.9,443.9l1.7,0.5c0.1,0,0.1-0.1,0.2-0.1l-1.9-0.6C-69.9,443.8-69.9,443.8-69.9,443.9z"/>
		<polygon class="st164" points="-60.2,446.6 -60.2,446.5 -60.2,446.5 		"/>
		<path class="st164" d="M-71.5,443.4l0.6,0.2c0.1,0,0.1-0.1,0.2-0.1l-0.7-0.2C-71.5,443.3-71.5,443.4-71.5,443.4z"/>
		<path class="st45" d="M-71.6,443.6l0.6,0.2l0.1-0.1l-0.6-0.2C-71.6,443.5-71.6,443.5-71.6,443.6z"/>
		<path class="st45" d="M-69.8,444.1l1.4,0.4c0.1,0,0.1-0.1,0.2-0.1l-1.7-0.5C-69.9,444-69.8,444-69.8,444.1z"/>
		<path class="st46" d="M-71.7,443.7l0.5,0.2l0.1-0.1l-0.6-0.2C-71.6,443.6-71.6,443.7-71.7,443.7z"/>
		<path class="st46" d="M-69.8,444.2C-69.8,444.2-69.8,444.3-69.8,444.2l1.2,0.4c0.1,0,0.1-0.1,0.2-0.1l-1.4-0.4
			C-69.8,444.1-69.8,444.2-69.8,444.2z"/>
		<path class="st165" d="M-69.7,444.5l0.9,0.2c0.1,0,0.2-0.1,0.2-0.1l-1.2-0.3C-69.7,444.4-69.7,444.4-69.7,444.5z"/>
		<path class="st165" d="M-71.7,443.8C-71.7,443.8-71.7,443.9-71.7,443.8l0.5,0.2l0.1-0.1L-71.7,443.8L-71.7,443.8z"/>
		<path class="st47" d="M-71.8,444l0.5,0.1c0-0.1,0.1-0.1,0.1-0.1l-0.5-0.1C-71.8,443.9-71.8,444-71.8,444z"/>
		<path class="st47" d="M-69.5,444.7l0.3,0.1c0.1,0,0.2,0,0.3-0.1l-0.9-0.2C-69.6,444.6-69.6,444.7-69.5,444.7z"/>
		<path class="st166" d="M-69.2,444.8l-0.3-0.1C-69.4,444.8-69.3,444.8-69.2,444.8z"/>
		<path class="st166" d="M-71.9,444.2l0.5,0.1l0.1-0.1l-0.5-0.1C-71.8,444.1-71.9,444.1-71.9,444.2z"/>
		<path class="st49" d="M-71.9,444.3l0.4,0.1l0.1-0.1H-71.9L-71.9,444.3z"/>
		<path class="st50" d="M-72,444.5l0.4,0.1c0-0.1,0.1-0.1,0.1-0.1l-0.4-0.1C-72,444.4-72,444.4-72,444.5z"/>
		<path class="st51" d="M-72.1,444.6l0.4,0.1l0.1-0.1l-0.4-0.1C-72,444.5-72,444.6-72.1,444.6z"/>
		<path class="st167" d="M-72.1,444.8l0.4,0.1c0-0.1,0.1-0.1,0.1-0.1H-72.1C-72.1,444.7-72.1,444.7-72.1,444.8z"/>
		<path class="st53" d="M-72.2,445l0.3,0.1c0-0.1,0.1-0.1,0.1-0.1l-0.4-0.1C-72.1,444.9-72.2,444.9-72.2,445z"/>
		<path class="st54" d="M-72.2,445.1l0.3,0.1c0-0.1,0-0.1,0.1-0.2l-0.3-0.1C-72.2,445-72.2,445.1-72.2,445.1z"/>
		<path class="st55" d="M-72.3,445.3l0.3,0.1c0-0.1,0-0.1,0.1-0.2l-0.3-0.1C-72.3,445.2-72.3,445.2-72.3,445.3z"/>
		<path class="st56" d="M-72.3,445.4l0.3,0.1c0,0,0.1-0.1,0.1-0.2l-0.3-0.1C-72.3,445.3-72.3,445.4-72.3,445.4z"/>
		<path class="st168" d="M-72.4,445.6l0.2,0.1c0-0.1,0-0.1,0.1-0.2l-0.3-0.1C-72.4,445.5-72.4,445.5-72.4,445.6z"/>
		<path class="st58" d="M-72.4,445.7l0.2,0.1c0-0.1,0-0.1,0.1-0.2l-0.2-0.1C-72.4,445.6-72.4,445.7-72.4,445.7z"/>
		<path class="st59" d="M-72.5,445.9l0.2,0.1c0,0,0-0.1,0.1-0.2l-0.2-0.1C-72.5,445.8-72.5,445.8-72.5,445.9z"/>
		<path class="st60" d="M-72.5,446.1l0.2,0.1c0-0.1,0-0.1,0.1-0.2l-0.2-0.1C-72.5,446-72.5,446-72.5,446.1z"/>
		<path class="st61" d="M-72.6,446.2h0.2c0,0,0-0.1,0.1-0.2l-0.2-0.1C-72.6,446.1-72.6,446.2-72.6,446.2z"/>
		<path class="st62" d="M-72.6,446.4L-72.6,446.4c0.1,0,0.1-0.1,0.2-0.2h-0.2C-72.6,446.3-72.6,446.3-72.6,446.4z"/>
		<path class="st63" d="M-72.7,446.5L-72.7,446.5c0.1-0.1,0.1-0.1,0.2-0.2h-0.1C-72.6,446.4-72.7,446.5-72.7,446.5z"/>
		<path class="st169" d="M-72.7,446.7L-72.7,446.7c0.1,0,0.1-0.1,0.2-0.1h-0.1C-72.7,446.6-72.7,446.6-72.7,446.7z"/>
		<path class="st65" d="M-72.8,446.9L-72.8,446.9c0.1,0,0.1-0.1,0.1-0.1h-0.1C-72.7,446.7-72.7,446.8-72.8,446.9z"/>
		<path class="st66" d="M-72.8,447L-72.8,447c0.1,0,0.1-0.1,0.1-0.1h-0.1C-72.8,446.9-72.8,447-72.8,447z"/>
		<path class="st67" d="M-72.8,447.2L-72.8,447.2l0.1-0.1l0,0C-72.8,447.1-72.8,447.1-72.8,447.2z"/>
		<path class="st68" d="M-72.9,447.3C-72.9,447.3-72.9,447.2-72.9,447.3L-72.9,447.3C-72.8,447.2-72.8,447.3-72.9,447.3z"/>
	</g>
</g>
<g>
	<path class="st170" d="M-166.2,372.6c4-0.9,9.2-1.3,14.9-1.3c6.3,0,12.4,0.8,17.1,4.8c3.6,3,5.1,7.5,5.1,12.2
		c0,6-3.1,11.8-9.8,14.7v0.4c7.8,2.2,12,8.7,12,16.1c0,5.6-1.8,9.9-5,13.2c-4,4.4-10.8,6.8-22.1,6.8c-5,0-9.2-0.3-12.2-0.7
		C-166.2,438.8-166.2,372.6-166.2,372.6z M-153.1,399.3h2.8c4.7,0,8.3-4,8.3-9.5c0-4.9-2.3-8.7-7.7-8.7c-1.4,0-2.6,0.1-3.4,0.4
		V399.3z M-153.1,429.2c0.8,0.2,1.7,0.2,2.9,0.2c5.3,0,9.7-3.2,9.7-10.1c0-6.7-4.6-10.2-9.8-10.3h-2.8
		C-153.1,409-153.1,429.2-153.1,429.2z"/>
	<path class="st170" d="M-102.2,439l-0.7-4.8h-0.2c-2.7,3.8-6.5,5.6-10.8,5.6c-7.4,0-12.9-6.2-12.9-14.9c0-12.8,11.3-18.1,22.4-18.2
		v-1.1c0-3.8-2.3-6.6-6.9-6.6c-3.9,0-7.1,1-10,2.8l-2.4-8.8c2.7-1.6,8.4-3.7,15.2-3.7c14.9,0,17.3,10.4,17.3,20.3v18.2
		c0,3.9,0.2,7.9,0.8,11.2C-90.4,439-102.2,439-102.2,439z M-104,415.2c-4.4,0.1-10.4,1.5-10.4,8.3c0,4.9,2.7,6.7,4.7,6.7
		c2.1,0,4.5-1.3,5.4-4.2c0.2-0.7,0.3-1.5,0.3-2.3V415.2z"/>
	<path class="st171" d="M-43,450c-6.4-2.4-13.5-5.8-19-8.8c-1.7-0.8-2.9-1.4-3.5-1.4c-14.4,0-22.1-13-22.1-35
		c0-18.1,14.4-33.3,23.5-46.6c7.1,12.7,21.3,30.5,21.3,45.9c0,16.7-2.7,27.1-9.6,30.5v0.5c4.7,1.9,9.9,3.4,14.5,5L-43,450z
		 M-56.4,404.7c0-12.6-2.1-20.5-8.5-20.5c-5.9,0-8.9,8.1-8.9,20.8c-0.1,13.7,2.5,23.4,8.9,23.4C-58.8,428.4-56.4,418.7-56.4,404.7z"
		/>
	<path class="st170" d="M-28.6,419.2c0.2,7.6,4.6,10.4,10.4,10.4c3.7,0,7-0.8,9.3-1.6l1.8,9.4c-3.4,1.3-8.5,2.2-13.5,2.2
		c-13.3,0-20.6-8.8-20.6-24.1c0-16.4,8.5-26.2,19.6-26.2c10.5,0,16.6,8.3,16.6,23.1c0,3.5-0.1,5.4-0.4,6.8
		C-5.4,419.2-28.6,419.2-28.6,419.2z M-16.9,410c0-6.3-1.6-11.2-5.5-11.2c-4.3,0-6,6.3-6.1,11.2H-16.9z"/>
	<path class="st170" d="M-2.6,404.8c0-5.4-0.3-10.1-0.4-14.7H8.3l0.6,5.6h0.2c2.6-3.9,6.8-6.4,11.9-6.4c9.3,0,13,7.4,13,18.3V439
		H20.9v-30.6c0-4.2-1-8.1-4.8-8.1c-2.2,0-4,1.5-4.9,4.4c-0.4,1-0.7,2.6-0.7,4.5V439H-2.6V404.8z"/>
	<path class="st170" d="M73.7,369.8v54.7c0,4.7,0.2,10,0.4,14.5H62.8l-0.7-5.5h-0.2c-1.8,3.4-5.7,6.3-10.2,6.3
		c-10.4,0-15.2-11.5-15.2-25.2c0-17,7.4-25.3,15.7-25.3c4.3,0,7,2.1,8.2,4.9h0.2v-24.4H73.7z M60.6,408.9c0-0.9,0-1.9-0.1-2.9
		c-0.5-3-2.1-5.7-4.7-5.7c-4.6,0-6.3,6.7-6.3,14.6c0,9.3,2.5,14.2,6.2,14.2c1.6,0,3.5-0.9,4.5-4.3c0.3-0.7,0.4-1.8,0.4-3L60.6,408.9
		L60.6,408.9z"/>
</g>
<g>
	<path class="st171" d="M-72.7,435.7c0.1,0.1,0.2,0.1,0.3,0.2v0.2c-2.1,0.9-4.4,1.6-6.4,2.4l2.2,4.7c2.8-1.1,6-2.8,8.4-4.2
		c0.7-0.4,1.3-0.7,1.6-0.7c2.5,0,4.6-0.9,6.2-2.7h-12.3V435.7z"/>
</g>
</svg>
